<mxfile host="65bd71144e">
    <diagram id="0LR_8L-zqhrm8HIOwDJe" name="PÃ¡gina-1">
        <mxGraphModel dx="891" dy="645" grid="0" gridSize="10" guides="1" tooltips="1" connect="1" arrows="1" fold="1" page="1" pageScale="1" pageWidth="827" pageHeight="1169" background="#ffffff" math="0" shadow="0">
            <root>
                <mxCell id="0"/>
                <mxCell id="1" parent="0"/>
                <mxCell id="87" value="" style="shape=image;verticalLabelPosition=bottom;labelBackgroundColor=#ffffff;verticalAlign=top;aspect=fixed;imageAspect=0;image=data:image/png,iVBORw0KGgoAAAANSUhEUgAAAvcAAAHdCAIAAAAWwsEhAAAAAXNSR0IArs4c6QAAAARnQU1BAACxjwv8YQUAAAAJcEhZcwAAFiUAABYlAUlSJPAAAAASdEVYdFNvZnR3YXJlAEdyZWVuc2hvdF5VCAUAAIS9SURBVHhe7b35b11H2ueXfyMIAgRIggkSJHmRIMlMkACDAfJTECBAJj+8Gcz0+O3XdrvtHrvbS3dbtuVNli3LlizZWrlv2mUt1GZakkVKXCXSJE2JFFeJoiiK4k7RstmW89F9iue9Inkvj6Qr8p5T388PF1V1annqqaeqvueKIv+jX4UQQggh4ohUjhBCCCHiiVSOEEIIIeKJVI4QQggh4olUjhBCCCHiiVSOEEIIIeKJVI4QQggh4olUjhBCCCHiiVSOEEIIIeKJVI4QQggh4kkolfPjjz/eDc1MOOhzSe6F4KfQ/Bya2XD8LRy/LMX90Lj1iALO4uwm8L8lsgQXN9mKi/7sxu3k6OAOqewm+ci1dFYR3BqWWEGSLzi777Icd3lHh+npac4id9ksxdIqZ2Bg4KOPPlqV4K2HeXsx3lmM1Um8u4D3knh/MT54mA+TWPMwmJrM2iQ+fphPklj3MJ8msf5hPkvi84fZsICNSXzxMJuS2PwwXz7MV0lseZitSWxbClcvHG6AJ8BZHA431SfA+e4RCfxvifC4VcwELj7C4QIro7jwDY2L/kck2Du2jx4DtyHD4Xby4+LOhSfAnTKhcYdUONzp9gS44/IRST5yLZ2e4Ky2c/sxcBfAU8DdN6EJ7im7szKCuxEfF3e5ZgJ3eT8BgSSYl3hUkpWGpRfCI7zX3d3tNMpSLK1yamtrn332Wa7J0tLS4jmK5iico2Ax8ufIW0BugpzF2JnEjgTb57ALe1Hc/ZzA3bRzuLs0gbsV57DbLhl3jyVwF1ES7rZZ7L5xl0ACO9CTcUf1HO4wTuBO1jncMZnAHYEP4466BO7QSmCnjxFk7VF6kvuxbh+VwDBLZATngnA43z0BbjHmWFgyD7eQT4yLj8fFBdwT4ML30bFdYNthSYK9Y/voMXB7MhzBRrZNnVmCc8POkEfFnUShCQ4xSzwq7kwMjTtPlwt3sofDroNUBPeF3R3pCe4aS2QEu9QWxV17GcVdrovhLuAnJvlyt3R6Aklg8iAVTkaEoGQB6BBOg+eff76lpcVplKVYWuWcP3/+97///fXr113eD+xfNBbF/btCWuy7/TS4L9ZT477ITo19b7ycuIGzAOejFcUtZNaQHHUWhCuO2zDLiNu9QoiYwjZvbm5+4YUXMqlyLly4QI8dHR0uL4QQQgix7KBy2traXnzxRbSOK1qKpVVOQ0MDKufKlSsuL4QQQgix7KByUCMvvfRSJlXO999///vf/14qRwghhBArCCqnvb09w9/ltLS0oHLa2tpcfo67g4Pde/a0rF9/Zfv2kebm+f8ofv/+zLW64W8/uHXkjyMXvvx57Jorn2Py56nirl2/Pf/Cb6teyL9aMvHzpHsghBBCCLGAp6JyfvjhhxdeeKG1tdXlE4y1tVU991zdG2+05+Q0f/LJd//u33Xv3WuPjLG6nb1f/ovBQ38YPvPRjdK/79v+r2au17lnPP1p/F+f+f/+2f6/e6H65d/X/PG/OvA//F8V//rWzG33WAghhBDiYZ6Kyrl8+fK8n2eevXu3+pVXrmzbdn/u1/IM1dae+Tf/5k5Tk2VnrtX0bPqfpztOWfbX+38b/vaD67n/5y8zY1bwRsNbf3f4X/RM9lq2f/rGPz/6L1+pfcOyGWdsbCw3N/fLL790/7cy0/j2H9CEEEKI5eepqJwrV66gcr7//nuX//XX4UuXqp577sc7d1w+wfdr17Z9+aWlhyveu3nw95Y2/jZ9+9qO/2O68zTp8Z8m/u7Q/5LfWWyPjP19X/93X/9Pd+491GemOHz4MBLn0qVL9ZmGPktKSnbs2OFGEkIIIcTT4amonI6ODlROY2Ojy//6682zZ2v/9KfZmRmXT9CRm9v00UeWvnX45eEzay1t3P955kbx/zvR/OBftW7cHfhvDv6PFQNn7JFRP3zxv9j33/ZP33D5zDE9Pf3xxx/fuJH5no27d++uWbNmYGDA5YUQQgjxFHgqKqezsxOVc+nSJZf/9dfxjo5zzzwz0dXl8r/++svsbN0bb3QWu69nRs5v7i/+1/f/9rNl4afb7b1b/vcf+y8+SP/y0/969F+93/SQDNrww+Z/fvRfTv085fKZo6amZvv27S7zdDh48OD+/ftdRgghhBBPAVTO5cuXM/w/ybu6ulA5DQ0NLs8wv/zS/OmnNa+8MtHZ+bd79+7duXNlx47K3/727tz3GT+PXevb/q+GTr0zOzl4/+cf791q6y/6fwa/fgk1ZBWKu3b9x7v+84LOkvGfJiZ+nizr3vuf7P4vd3bk29MMgkc2bdoU/pckPh43btz44IMPpqYyL9GEEEIIYXCnZ/63Avb09KBy6ur+6X9Iwc+Tk83r1n33m99Uv/JK1XPPXXjxxdGHlcSPNy5dz/+/0Dr9Bf9371f/GxLnb9PD7hmG/vrLprYt/9ne//q/P/TP/+7Qv/hP9/yzT1s2/O1+2D8xGp6Ojo7PPvtsdtapq6fH9u3bz5x56N/ghBBCCJFBUDn2220yqXJ6e3tRObW1tS4/x/1ffhlvb7/x7be36+p+XuxrjF/uTdztOjvZsv/HG43BtzjJ9Ez17urZV9a9t3Mi7B8XfVRyc3O/++47l3ma4PePP/74l19+cXkhhBBCZBRUDvoGTRL+n2iWVjnXrl2jx5qaGpePDrdu3Vq/fv309LTLP03QN4y18HcnCiGEECIjoHKampp+97vfZVLl9Pf3o3KqqqpIuz95HAWw9vDhw19//fXymM0oZ86c2b59O2vgioQQQgiRObhhL126hMoJ/53C0iqnr68PlfP222+vX7/+0+iwbt263/72t++8887ymM0oH3zwwb/9t//2448/dkVCCCGEyBxctatXr0bldHR0OI2yFEurHHTT888///7772/ZsuXLqPHVV1+51NOHsZZzOCGEEMIrNm/e/MYbb6BJenp6nEZZiqVVTkNDw7PPPms/w3s/Uiy/wZFzkRBCCBEV/va3vxUWFqJJ+vr6HgiUECytclpaWp577rmzZ8+6vBBCCCHEsoPKKS0tff755/v7+13RUiytcn744QdUjn4ZjBBCCCFWEFTOrl27fv/734f/q0pLq5z29nZUzrfffuvyQgghhBDLjqmcl156KZMqp7OzUypHCCGEECsLKqesrOwPf/jDzZs3XdFSLK1yuru7UTkVFRUuL4QQQgix7JjK+Q//4T/cunXLFS3F0iqnr6/v+eefl8oRQgghxApiP3388ssvDw0NuaKlWFrl9Pf3o3K++eYbl0/ilwQuExqsfIxWxujoaHNzc0tLy/j4uCtKMDk5efLkSSZfsoCFhZRkLajUMOxaIXbP4fJJJcvJngUsWvgk7E1iYcmTsy8JV/Rw4aOyfyU4MIfLJ5VkioMHD7rUHJQsP18/zKKF2U9gs9n/hLj1WGyN0pMcKpZ+EtwGSE3y5rJ0SJJ3vR0Cj4EdWU9C8klr6SfBXSELcDfQUyD52rU0EDPd3Y/z9ytN5fzxj3+8ffu2K1qKpVXOjRs3UDmnTp1y+TkQFl988UVjY6PLh+bw4cP5+fn37t1z+XAgjL799tuPPvpo27ZtOTk5a9asaW1tdc9+/fXo0aNYeO3atV4hhBBCZCt9fX0oB67yqcX+znd6UDmIJFTO8PCwK1qKpVXOwMDAQpUzOjq6cePG5557jteCiYkJxgtI/uuY9+/fHx8fdw8SjI2NffbZZ6+88srWrVtp6OqFANW/adMm64Eh2tvb33nnHdI8mp2dLSoqCq/shBBCCLFS2Fcyg4ODLh8aGhYXF2dY5di/WCWrHErWrFnz3Xff1dTUvP322x/OQeGqVavWrl2L7LCaQ0NDWPP++++7Gh9++MEHH5C9du0aHX700UfXr1+3muk5d+7chg0b0DGFhYX0Tz+tra0IOvt3tMnJyV27ds3MzFhlIYQQQmQtT6JycnNzM6xyECLPPfdcoHKuXr361ltv2Z8oh59++uneHD///DOVV69eTdqe9vT0IGvu3r07r5o9vXDhwnvvvffDDz9YNhV37tyhWm9v79atWw8ePIiE6u7u/vzzz6urq7dt20aF8fHx3bt3M4TVF0IIIUTWggwoKCgI/xPEAVz03P6vvvpqJlVOX19foHI6OzvfeeedlpYWe7QQjEaRIGUsizRZu3Yt4suyC2lubn755ZfT/8f3Q4cO7du3j5rMLeiqpKTk9OnTX3zxBaIHlUM2GFQIIYQQWcuPP/6Yk5MzMjLi8qHhokdUZFjloFQCldPa2rpq1ao0/0+dR++++26yyvnoo49SqZz79++XlZUVFxcH/8K1EOp89tln165dy8vLu3jxohV2d3f/5S9/Wb16NQpp69atAwMDRUVFyT8PJIQQQojsZHJycufOnY/0s7kG6uLjjz/OsMrp6upK/hers2fPvvfee6kGoDz5u5yenh4MSvX/xvfu3btt27bgH7AWBcW3bt06PLJ58+a2tjYrRNa8/vrrW7ZseeuttzZs2DA+Pl5YWGg/iSyEEEKIbIb7Oi8v7+7duy4fmqeicjo6Op599tlA5cCJEyc+/fRTlEd7e/t33313bo6qqqpDhw69+eabwY/I9PX1/elPf0IYVVZWWh3qV1dXT01NlZeXI1MQMVYzDZ9//nl3d3dFRQWS6P79+1Z48+bNVatW0QNznp2dReXo/1gJIYQQ2Q8qp6Cg4DH+z9BTUTmXL1+ep3Lg8OHDH3zwwZ///OetW7dia/4cOTk53377baBFmMP+/fuRbO5xfj5y5LXXXluzZs2XX34Z8v/KHz9+fP369Yi+nTt3bt68+fTp001NTcgjZJaJJIYrLi4O/7e7hBBCCLFScH0jBrLlu5zW1lZUzsLffYy4ee655x7jt/ps374dE8P/gxyzQktt3Ljx+++/r6ysLC0tfeONN7777jv3OMGuXbv6+/tdRgghhBDZCtd6SUnJY/ycCQ0/+eSTP/3pT5n83cfNzc2Lqpwff/wRAZTmB4dT0dPT86j/uvTzzz+jbz799NPPP/98x44db7755rlz59yzBPv3729oaEAYohCfHki6iDI9Pe1SiXRsYMUjx0wS87LZCTvdpRKQNVw+pixcmsTqxRa3o+ZYWBJv3OGYwBU9XBhX3N02x8KSpwGj9Pf3c5XP+0tNYfjpp59QAq+88kom/1pnY2MjKicb/lrn/fv3R0ZGehNwyLrSBAMDAwjDnSIFOTk5LpVIJ2cjjc0FXD41rt5cTZeJrB+c9Q9PJzkNyVlLR4iFZs8rsawxr8SyscfNdjGfuHwIXIMFTRaWxJWF07cScHnxFMjNza2trXX396OAytmwYcMf/vCH9L+AJpmlVc7FixdROadPn3b5bGV2dtYJxSdjIkaglAMWlsSJsYgzmjXwIpFxXNdRwK1HgnnZWOL2j5hj4SFpJ6e3uHsx08w87t8q+Pnnnzdv3vziiy+G/0ncpVVOfX09KufMmTMuL4QQQgix7MzOzm7duvX5558P+eehYGmVU1tbi8qxn/a9L4QQQgix7CBC/va3v+Xk5PzjP/5jT09PQqEszdIqp7q6+t//+3//5ptvrl+//lMhhBBCiJVg3bp1f/jDH9Akly9fdhplKcL+XM7LL7/8RyGEEEKIFeV3v/tdR0eH0yhLsbTKmZ6ePnny5MjISOz/L6UQQgghspnx8fHjx4/fC/33uZdWOT/99NO5c+fm/c9tIYQQQohl5ueffz59+nSqvwK+kFAq57vvvpPKEUIIIcTKgsr59ttvpXKEEEIIETekcoQQQggRT6RyhBBCCBFPVkzl/PLLL729vROJvzTe09Mzlfhb5X19fWOJPzpK4s6dOySuXbtmf6qzv7/f/trWwMDA0NAQCbI3btwgcfPmTUsMDw/TkMRI4s9XkRgfH7cSBuru7rZEV1cXE757925nZ+fs7OzMzAwlOOLevXtWwhQoIUshJVSgPonp6WnM5hGd3L9/nw4nJyfpkyFGR0dJMBGGJrGo2YODgyQCs0nY30UPzGbKgdmWoH/6ZCwSjMvomG32YxUGmLXYhqlACZ5PNpvK+JYeggQ9B2abtykxs69fv26+xTD7O/X41szGfiCRbLYZidn2ayUDs+nWzGbEq1evYjauM9+atwMn82n2m7epTAWeUmIhkWx24HYG4hElQZAEZpvbsdnMxv7AbDMy8DZLRkMSyWbT+TyzKcGNeBVLSGAtJWY2dczbJFgXnvKIBF2RCMw2a2kexLb5FnvMfuLBzCZh1gZmM6/AbHM7nZj9LJn9niv6N7PNyRYkPDJvW4klks02JwdmU8F8i9nUJ2FmkzCz8dU8s7HQYhvDzFp8brG9qNnm5OS9iU9IMKJFC/abk81ac7uZbU62IMEkEjylMjUt2s3bPAqOlMBs25vYMy/IMdWCJNnsILbN/mBLmtkMgdkMRwmbiOHM22Y2CYw0s0lgmB0pFiTUIRGYTYLm88xmCDOSJTazsce8TSIw29zOp/1pHhLm/8DbJCy2LUjMbEahxI6UwGwekcBI4gHzOjo6zGwekTCzzdvUoSbVKLEgIRGYbdESeJuEmR14G8PMWrw9z2wqmLXsgmBvYiQJ+jf7LUgYlASWUBIcKZjX3t5usc0cLVp4RCI5yLGWuVts20nCWAvNtp1IwszGVEsEZpMNzDZraWL204mV0C0JM5JxGTT5ADezMS9ImNnARJiO2U9bc7J5GydbtJjZJCiZZ3bgbUy1ICERBLnFBhXMWhbIrE0224Ic/zAuCUYkgfcwO4htSrAQa0lgLQnChoTFxkKzmbtZG5hNWJLAWjtSgiAPjhTMBhJkA7ODLWklmE1XJIK9aU42s60fA2tXRuUwh4KCAmaFBefOnWMC7PzKykqLzqqqKlvv8+fPt7a2kqitrW1paWECjY2NbW1tuO+HH364dOkSie+///7ixYvMgSbUp0MS9EmHzJk+SeCFM2fOYBVb5fTp05TgNRIsHo7mEevKsUgJDiJ99uxZvIkfv/nmG+KDEhKcLywh/iImaEgrzGa4CxcuEKbYhtkWuHV1dZcvX8a2+vp6zKYOFjY1NfEIaymkhCzVmBrTwUgqE0ZmP1FIV1RmRBI4hAQmYT8eq6iowB6swlriBjuxDVMBkwh3nvKIcqylBFfboliCDokSRjFr7REeo3Mm0tzcTElNTQ3upQ7WmttJYDBGshwNDQ0krly5grUkCHEa0hwn43ZmhNuxltHxz6lTp0hgNpbgW6yyR1hOInA7xhOjVGZePGKOOIE+8TbW4m1cRP8kaIX/WW5GZ2gSxAbWYiROZiKYhLXECfZjKmASJdXV1UyN6TBxSmjLNGlOb9hPIrAfR2EAo2MMJRjGnjG3416sZV8RNlhLFsstgW1UJsEoJGhCgp5xAkuJk4k9+mQixAaPsAdrSRAGeJUEE8Fs7OcTMInYoNC8zUQooRMaMjVKLCRYRExidBxFJGAt0YK3cTJG8ogZmdk41nxr3rZoIcEjrGV1SNCJlZi11GE1zVo8hiXYQwkJdh/msZeJZ8LGSkhTmax5m3XByRhAbOMTSkhYSLO+2I9niA18Qgk24CX2JmbbRCghQczg8MDb2GZmm/1BkDMKQ9iWtGihcwsSOieBx6jDihAMFjY4mRICG8uJH1aBBDNiXZgIdbCW+vTDlOkcJ+MWTKIVYWNOtmjBHktQB2uJW6IFb5Mgy1OmxkTMpXakMBGspQcSdqTgEIamc+xnWTEAM7ABAwgSnIlthIF5m0jGctukFDJHJoi3SRBgzJexArcHR4p5myFwssUPJyEmYSElJ06csNhmIiTYm9hPBaw9efIkZmMkE6ETeiCB/eZb7MckFh3/8IixLMjxHtaa/fiWEmxmn1JC8JBmjtRkLfA/c7fYphOMJEG32E9IEJZYi6+YCLaRIMiDc4/YsNjGJGwmkqlsCXxLFGE2rWhr3ua4poQhTF6QwFGMgrX4EJPsAGRGWGhnC95mIiTIWpBTQkMSlDBfmrNkVkK3+AT77QDBIbYlg3sHw8y3fBIVlPAJx48fx/nMiKnRxKw1bzOEHeD0bEFOCQORMGt5hPcwkgSuJip4RISb20mwBNiPt6lmsU2ChcDbTJzQsiDBSPYOtjE6A1kkM7Q5GfutBHAyppKwhTC34216sCChBxJ0S5iRwFoe4RC2JCVMhBjAEqIXY0hgM3sQI5mFbdLgusHbGEkrFgizcUgQ24SNRTJBwig8YsScnBymxqQAP2AzvVl2STKmcnAf3sd6bAJiDo/QCi+Q4HNeCYZiNJ3zmSpBP9S35taKTqwkSFBulemQaScnIEhQGBiQKsFwVplW1CcRWEKJJfikmo1rJi1M0Jt1ReV5JiUneEpNmDcjSE5A0ApImG3JCT6pzOh0Yq2ChJmUMG2GLIMC9ZMTgUkkrCbQaqFtluAzGDewbWGCTqwVWKuFCcCAYCJmUpDgE3AmmEkJ0+YnbBTqWCt6CxLzTKJOsknJCSwxk0jTPDApVYJPq0yrwBIreWBZooRHQSsziU+zhISVWAUqmwGpEgkfPAgqa04rs8QSlAAdWn0+A0ssEZSQAConm0QnlrAS65n6wUQsbR0GJdYVTZJNWpjAbKtMK1iYoEMqUM3GDQxYmKAmrahsrWBhgqfBRJIT9ECCTqyEfsyAwLaFRtJb0CqVSYll+afjbmGCTkhYJ3wmLHrINvqxBBWCca0VnQSJ4JH1w2eybSQgKIHAAD4tMc82zA5aUX/RBIZRzVqZJQ8sezhhtlEtMaGHvB0k6I00NSG51cIET80APuclzCSuGD6tMp80DBK0TS4hS6vApEUTNiJYc7LJCRuFBPWDiaRKUNMqA4l5tlkCGNQmQquFCZ6SADOJVoFt8xI8ssp8mgFBItk2PqnMuNRfNAHUMayVJebZRufBuLQlQdYSlNgjPhOt5zt5XoIOrbK1SmUbERVMhDTSjbSJDcpXRuUAo2KNzTw99Ea36bEJp4exGNE1SE0Guwozu2Cx05BBR4XpigrL7HOL4PRksKtl9nkGHbXMPldwQqYcBVnoc+qE8XkYR2Whz0M6avl97mqnZpkdBcvs8zCOoitXOzWLOgp163TGCqqc0dHRrsS/TztLUxBypTMYNCG7crVTE3KlMxg0GewqjKPCbImQPg/TVZjZQZjZhdldYcIAMtUVZmewqzA+D+OoDEZUmNkpOGH5fe5qp4ax4h2cGewqzOzCRFRIRy1zVxl0VKYiChbObmpqqqKigoSJjRVTOdevX6+pqVlyGpnyRciVDtmVq52WTAUNZCpo8ICrnZYMOipMV9F1VKa6UnBCmNlBpiIqg8EZ0udhHBXG55idKZ+H7CrewRnS5652WjLoqGXuKlM+Z6wwPn/awUn/2fIvVtR0li4GMwzjiwyudMiuXO3UMFZ2Bo2rnZrMOipMVyEdFaarMI4K6XNXOy0KTroK4/OQwRmmqww6KkxXmXIUZKHPszA4IczssjM4l9nnYSIqpM9DBqdZhWKwVgtZZkdBmq6y6F+s0jglU74IGTR0lcoYyu0Rn672HLgvWHUSeJbPkEFjrdKQxqRkMuUoCOkoVzs1mL1kV1TI1EYNubvC+JyuXO20ZMrnYRwFGXTUMvs8g8EZvisMS2/bkj5ffkeFDM4wXWXK54y1zI7KwuCkK1c7LZnyOWShz4PgpH5DQ8OdO3eCWy+AR5ny+ZM7CksQISRMbGDtyqica9euVVdXp5pP4NY00DaDbrX/yEeHhmuciJWRkZHbif8nHLgVfyFoZmdn7T8rUkIamzs6OqwT1zgFyV2lggpYFYQgo1hiHnTlGjxMcv+kk02iT7Lj4+Okk/0f0lGudlqoRmDhpfsJTPyRtUmRMHdhRjBoMFMKwdLAo3k7irZgaR5B0DYVNsq8fhYyz1GpYDjXIDWMaF2RsFlb2yBhmGHpmTe7oGc+eWSBQTpMV2FmR53k4FmUkI6ijmuQmsz63CoT24ODg5YOsHlRJ9lRhATRCIQoWKxSvmREGcldpWLJrsI4HJ6Go9LzJLOjbWAtdZbcehDG52Fmh6PCdIV5rkFqQvo8TFdP4nOL0sCH6WcXGBwmqKyrVJeLQYdBV5i3b9++gYEB7LESI7PBGaarRR0VwFP7jQAmNnDdyqgcDpRUqxXSF652WtL7wmA4qh08ePBM4hfqFBcX//DDD9b/xMQE6/fNN98cPnzY1tWi7fLly0eOHLl58+bevXu///575kKgfPHFF3//93//2WefIX3SrFNy0EAQLtzcQRxTAauam5tbWlrMvJqamtOnT5tVAVTjNMdyyq2hQTnmoSPpnLSrnYDeWP7NmzevX79+y5YtFy5cwHJMyrjP6banp+fBb31pbOzs7MSTX3/99eeff86gJIaGhhgU7dja2lqXgMo0pBWPkJXYQwV8QollTdnwif10SILZnT9/vry83OY4OTlJZbMhwLxH50ePHmXVrJNFCTm7R3IU9rAXCgsLWUoKCZjKysrASEpcg9QkW4VDcAU9mEPobdeuXRareMA1SA1NXEdpWbIrKmCJq50a6rgGqQnZ1SP5nMpsSXxOOuicBLuyoqLi1KlTVLCNxidrcf369b6+PoLKfv1Me3u7NUkPHYbx+ZKzowJbmN2dvren4aj0PGpwJsNmJ0rtt9Rg0mjit7cFh9tCmB3VXOMkrDkJBiIBw8PDVE6zi0M6ijquQWqyxOf4jdDlBLOB+HS1U4DEt2sLrIdUmHs5gTlFU1lIneR+qM91w7mdvARUyJTPQzoqjM+5lJ3UWEGVw2LYr2Zyhs8RZgJPEjTzsKBhndArnIA3btz4h3/4B65h/EL57t27uRpROfv377dXPWQshdu2bfvHf/xHLk7SDQ0NTIcD9IUXXnj11VefeeYZzko6TJgwn+SgsSGozPVM0DA0PrGzAMuhurqaw4IETRiltLQUa+mBT4NWnCAYEzQ0WE4UNz1Tweqbn/nkWP/qq6+wk5OdY/2DDz6wXx5FTXDtE7bxST8QmERz+6SroM95UIEmHGoff/zxxo0bN2zY8Oabb+7YsaO+vv65554jMDinioqKuIQQWO+++y6icO3ata+88sqhQ4doRc2dO3fm5OQgK+nt3LlzZKkPbW1tWMgqsBZIJTOYUd566y0mhYtwF60wwCwB0mzIAwcO0AlDMBZNbLJ8gs0OaM50kh1F2npIninphHse+Mc6sWwywdJTGcX29ttvM/p7773HCnKfEVosNx1SM7m5pekzcDgsHB19wyljv3eLswn/sPQWUbQKGi6E+tZJGhjIukpPYE8aGM7VTk3ySqXhUbuiPiHNpiAqMBUoAXR/SUkJq0AdcxTeZncTS6wRQcgWPnHiBNESvKXwSc+Wtqyl6Y3mQSfJbk/OJjekiaUhOU01ouLYsWMU0pDmYM0DLDhdg9SYVekJgjM9zNo1SE2q5cNUwp5dby8VbFh2PctBmgkmh7eVkMBymDdHssQ2hxibmq3NRmbtjh8/zrkx77hLZpkdFaarkHG+qM9xEQcmJz8RwvSXtIqY560PSUTNkydPclxwN+FzoCs+6ZMVIUEFRuQTZ+JbG51ssgNJU5IwxEEJ5w/dBv6f1yQVIX0epqtFHTUPztizZ89iZEJrrJzKYSWsmrM9wdMOmnkwnFXGv+wfHNHY2Pib3/xm1apVLDyu4TJmUWtra7mDsfnq1avr16+vq6sjYnj96ujo4NK6dOkSPl29ejWBSMRwStIVnVvPycwLGjrhPfLzzz/nVKXzPXv24BCEFJajXSikWyCLnRzcxcXFdEKWYxFoDlTbvn37nbl/KOWTQj450zGbBD0wCh1aAPFJV9z3lKOrvvjiC2bBoIl/r7tjVmEkbwMkkEE8teADttC1xK9CJ81BxvZLTOufMJ+zi3744YdPP/2UyvRg/gEUjP0eSFyEV7GQEpQNR5h91UE5qpEe6JlXaobAOVQgOumqv7//wYRnZ1FpnKH4hD5fe+01VCkrQp2LFy9yV2E55mEMFZCkTNC+7OHMRRbYPr958yZ1+ER78YihH0zv7l0cwqAkmCMeJkETtDgTp0OcaQcENtDEpIa5PYDyhCceQJqA+fLLL0kg0TjoOR0wj94oYSASNiMaMhZdUd9+dSkVgE6YOOvCU7K4xXqgnKGxEDtpBVhFIR0mrHgIJkjlBwalhSGo6dqkwCLBNUhNyK5c7bQwa9cgNeaoAEa/cuVKbm6uOQ2f4DRch+C2X1mLu6yhQXbXrl1nzpxhD7IWZLENaE6A8TLAFsOBYM6nnBLSdE5lembXW0M+iQqeWpgBdWjIMhFa9Gb9sKCkzTwemc1UprmZam0Ns8Smlga6dQ1SM89RqXjCrrCWyHzppZfYp8yUCfK2g4fNvYQ97qIHRsFX9GNdkWbi1gPQCW15jWQDInQ4Fnhta21t5VhmcdGj1Jm3jiEdRR1qujYpWH6fU801eBjmSGQyX0ziZZvppzeMaOcU5dCgIQkCHuHORcBty6LY2YJawrG4kSxnL1ceCe4InMwQFpl0taijsJM6gcpcfkeF7Ip9SrQQb0QdYO3KqBxu1nkOSrXSyYT0RZiu8JernVA5BBPiF8t5sUM3sOQ4hWxRURHbDJXDJuQRChHj8RpPmQLKhkhC8bCN7dLixiUO6NB1PQeTdQPPQWUu2pycHAKLrhgLA+gfZfDJJ5+gnwjQU6dOcXnn5+cjCKjJvBAKKC32fFdXF8KIcdET2EZvWIUNaCyM50zngCAc0RNctFQLYpetQg/0v3XrVhQPNzeBjoTavHkz+8H+aeyjjz7idkdkrFu3bu/evcgF4oZXCsZivuw6yumZ4YJugy2BZ/DAH/7wBwymLdPBNkbhnYyJFBQUYDxnH8O98sorlDAL5kId/IypbEgq42Qmy0SYDitFlm6p09nZySq89dZbBDE7889//jNKlOlwPbCN8RumUh97MBgnsHz0hmfMBsrZ/By7TBMz6IpJYSFmsw1ojiTCGCrgHI4DKtA5q4838BUuxVecv5iNcxBqGGkbHuYFJ1nEjXke57Ca1Gf6lZWVBBs9YBs2s+JMhGkSOazyhx9+iEM4p2jFGuFnAoPmuB3nlJWV5eXlETas0ccff0x92jIXvIGKYi54yYwxaJgc56lgLNcgNXRFNdcgNSGPIVc7LY/XFa1YLFQOO4X3flaZZeUcJ2aIRm5TIsE1TsDyUYfIx3XEHouOb1llIorQYpVZFwKe1X/vvfdYCxQ8ccWy2letLChxjhiiW8Ke+iwoVwj9sHmJJWChiSK6JcbYzrxEEer4s6qqil3AKrNwWEIhPWMMU7CgWn6fU801SA3DudqLgcHEJwcIO4jZsZWee+45fMUWxo34h1DHjWwHjtn9+/ezT9l0rBFnaTBZhmAL4C7sIcI5IW1f0zNHBx7mM9h3EJXgXJRUPmeCKGZ2PW9oTJCDyxKu2QLwAK1wjh2h3CYEJEcEEUsk494tW7awKUgD68KJQQXCj8OfEGWNOJf4NGfyaWYkw6yJao59bFt+n6dyVDIMZ5WxkJAzSK+MyiG4ORqSw9qsTEMGfTGvKxaMA4vbhX3I/mSDrVmzhpujo6OjpKSEBEHAtuQRlTnODCKJJaecOkQPTkRAEDHMK/C1sWjQ4Hr2Km35xCHnzp0j5oi8999//4MPPqAfLlfOUEKT448jkhOQO37t2rWc3RwQgG7o7+/nXuQgwB4M4HznZEH00MquVQKaaoxirsYwjt2XX36Z/rGWcWlLxHPK0yHTf+edd8gyU8bi8GWCXOq0MlXEzqFDNgwvanYT2wSTfY4l7EY2J5sBF9HW3t42bdq0evVqbgvSzJ1O8CpuoS0eYBT6YWpYzjnI9rZvmDj0d+7caVKJau++++4LL7zw4osvskBcJG+++SZKgrlw/dOcuZvz6ZOL7Y033uAdGrc8WK0E9IyH2cxoBeIe99qXN9w9dEgMfPHFF6YjKcG3ZNn2HLKMQgXM41zmhsMkCrHNZCIzmhdRQAm3HULNfMJRznxZRHpgyXA+xmA5budgYl58suL42b48sCuBQs4prkOqsVI4lvsAM4gQ1hG32B1JhwhQajIQwwUEC5SGRYNzHiFPNOq4BqmhK1c7LXjANUjNQp8DDXEUwUaA/fWvf0UmIgcJA5aMiLXFSgaPoddt/xIA7D6OL8KJLYN8oRM+8S0e5hFLxp1BVBBmSF7i+erVq+wdgpY4Yb0sgNFYdoUQIVjCJmJ09iMhxP5FLVGNUYgEwgBFRVQQKphKJzTnlsKYkD5/bEcthGquQWqW7Ap7iEw8QE02PpuIebF9mOZnn33GBDkZcBT+4QpgspxsR48exT/omGC+JMgS/LaalNiXYfZVGVsj+DoBMhucWeVz7OEMJzg5+og3lHca86hM2PA6RGhx9nJMcVwQdQQh8cyZxsHOEcGJxPFOVHMvcP5zTlLISxcKkmin0GLPWfAwjMIVYJ7MKkcZQVeEB04IhM6KqRx2slXDpmX2BcO52nOwqNxqXEIcTNwidGLvVSw58WGblqecSmY8ZxyFJNiHaCNChE1IlHBrso3nmUo0LBo0uJ5y7jnrirsKGwi4P//5z6ZL6JxxqYAAIsvFhsIgS5hyfHMjYhs3PfW57Ti+Oa85BThVOYg5SemQq5FzhH4wz4IS2xBtqBwOdI4eO6OpTBCQRtU9++yzbAw64fon6IlpNgx3OQc0hzUaiEOKalwMdE4w0e08n2MGPVOTV2ds4PxiR7W3t7O1ONqwjfOO+4ajzV6vmSN9muBgFpxljMtFgj10hdZBb+EWalKByRI2yBSWg8micniKGGID4xCOUWZq4cShwAqSwLfIPkzipGCr4w1uGqzCJAzDfqQhw7G4+AqTqFlTU0NXTBOH42H8xtIwhE2WQhxOt7xdce2RmLfiBoVcZigtQoKa3JQcKCabuDJ7e3uJIsQWq8nsXnvtNaQMjziSaIgN1McP3NDYTAUuA8o54rkh6A0bGBc3YjOuoDmhiyeTVc7COF9IquBMhgoWPOkJs4vpytVOy5McCJhKYKDCCePf/va33Ij4nBJcjcM56cB6MEzl4HwSdhPTMyFBwOPSVatWESSsAjFDNZaba5sQwu3EAEFOPBOWBDZrymaxNwRqso4MxCoTomTr6uq4tl9//XV2DVuY4KQHAoxDYHBwEAtZO/Y4N9Nf/vIXe2nJlM9TOWoeVHMNUhMmouiHOCc+mQIeoAlrQTwzcbY8aZyJc3ghwW8EPOuCH9gFeIDmNmta4WfWjkHxBkcQK4jbqcyVz/bnlAhUThhHUccqpyGDcR7GUZDe50zQTj/8wOHGZqfEtXwYzLZdjM/RzdwLHKfEGG0JKo4O9gJO4ziyL3gowfOU0IoDkyvArh7ca7FnBiyEgTCGEcNMMIyjMhicyV1xMXFuMxEOScBvK6NyGJLYxaAV9EUAi4dMJj6IA24XDMM8+6rA5sI9ykZFAG1N8OqrrxIo+I4m7FVCilaU02Re/0H8LQqXOv0TlGgOjlf7khzZxE4mOlFayB30+Ntvv02Ws7K8vJzDggXjUCA6EQf2zop+pyvb9lTjquYNAKjJsUIJ544Zhj3YjFZA6CBuOFLtSxp6JnzRW2gp5BrhzgGNuEEooFQwEiWHDdhDTTrkWMdUzpqFsyO2ONPxFTW5LZgUdzNDI1N+85vf4FKuZK5qeqMObqQOJlGHTzyJPWw57hjG5dZhvmxXdilygdVhylRj7hjAOYi1dlWwObmHODpZO+ZICevC5QHsXu4qesYDDEq33FVMlnOTp0gEHIhuoENG4ZpB4tAEx2KY3UYcyngYYWTfujE7loweMJJXcMZKLPV8CGyas3bcf4yChbiLheO2w+EcW7iUBEPziR84xBmRMMBIOmcIVgEfso6cR5hKCTZjDIFBHRbFFpfLg/4RhXTIHC0McIKzIzXpg9OgQpiuwuziDHY1b5fNAz8jHVgyLlSCmdUkVPjknuAR62sRYl0xHIuI5MU8/E8IcUQSY9TH4USjbSJWh/AjVNBD3MdAHT5ZPtaCeCbNelGBJqw7gUTnDEc/VGCZ2FDr1q1jTxF+VGDVeESaswWFTYIIZKGJT7YMVrnJpObJHRVANdcgNSG7YvsTvRwUdiKxH9mzeJj54h8e4QrONOQgjsLbOIGQZgvgsSA8mBpLxmsV43JV40ZgC+NemrMWZMPHeRhHLVtwBoTxOXMnNkzYsd/xm51vrosEZJN3Mf7npY6GFJI2g0kzXIA1tPuX5tQBO6WDfbEo9IMl9L+kr2zc9NCbq50WDHYNUhNMKoDwM6UBTGplVA52cFc93gQWJUxXuN7VXgDLRg8cjoQUCfxCiHCQUW5p4CmyFznMScfZxCNrxTsiTmRbzls2nlLixl4MeqYOu92+gKEyRyG34MTEBP0ThRy42EwJCbMKqMZ1iz1WjX4spCinN/a/vf3wFNDs3KBmrTNrepqxOP0pYUb0TH1OH4amBKFDP5yztp24GGyZGAICycKUsSHV7LANO4kzAou29ENbrhD7QoWrGl9ZIT1Y5zYvDOPC5s5AEjFrxsJ4jkKuGXxO22CDYTmzQw/ZGtEDCZQNicAG6qOTOCtZHeb7YAkT0JBH1KSTnp4eejMjKad/0gwNJOiH6VMZ86xzEhRiJx4zXz1waAqobxNkUFxBQ0bhk2uvtbWVRbFZsASBo/AMy0FDg6HxOV3hPcqtW2zAh0wKVU0TDDNr6YrOGZGGVjMNNKQm9dNABaq5BqkJ0xXmudppwXLXIDVhZoc9uI4oJYFb2BTctXiJtngeg20drSs+LUFNlpvKVKCET9aI1bFopwKbgqUklsjaj+Vx1lHB4hmIWNaLp9ShPiWsFG/PBCptCRg6t50FdEu8YQZp7AG8NG+rpgLzEs5IRwZ9HrIrvM0smBezJkFDSpi1RTglzB3/sFVZDpzG8cIWwCccPrgumDgmUQflx3nLCcDNyrHMawZvNZwMYDaHcRR1lgxOKrjaacmgo6jmGqSACoQNWpDIwW80QYjzGoY35s164ewIUc5eS9sqYLmrnWBRv4WZHWPZTTevw3lk0FFhulpoDPFm386a2MAJK6NyCGvssKM/DZkKGki/MAZ1cI1rkAgXl0pg0cPphteSA8VWYl7/IXcX1awrmymdWD9WGDyyYA2wLJ+BhdSxypBsiT1NfkSWWdDQmvNpy2/HEJ/zukruLSinzpKzg+S2pK1nmNdn0BWjmxmBhUGCp9Y2aMVnsqkk5lllzZkaSzbPUdbKmlhzSC5PNslGD3oA65Zya5gehnDN5paMLVdTU0MPNjUIHEJinnPMJDqhnE8q0w8NmZSFImmwzjE7uXkqkieYCirY0OlhONcgNeZz1yA1IbtytVPDWOYoWzu6vXDhAi8SplEotK4WddS8QrL4wfoxaEgnJChEZSJ0WAXqWH2GDghKaGIesIbWCdBDsHBWEnL5qGP10xCYlB4Mcw1SE8YkCLpiUjYvw7xnabrCD6hJXmauXLlCNevcyq0f8xiLVVlZiSQljeLhdYX7Yv369bQ6d+5ccv00UC0xbDpsaVyD1NAVLnVtUkBXrnZalvQ5bkElv/XWW7wO4QTeq48cObJ///6ysrKcnBy8ZwbzuaRJISMqZFdUQ3F2JP7jrWu5gJA+d7XTsqSjYNHZoXLQx7iRM9YO6pVROdwTS7o1g74I09WKBE1Q3xILCRM0yV2l4bGDZiGZ6iqMoyDM7KjjaqeGsVzttITx+ZMEJyc4uEzo4Azj85COeqTgTEPI4HS10/KUfM4Bh6vLy8ubm5s55lxphhxFBa6ckHHu2qQmgz5/DEelIkxXSzrKSJ6dfUnmMknM68rkEZ+sHetoP6tHNoyjqGOdpCFrfT4yMmL/gA779u1D5VRUVFRXV+OBwOAwPg8ZnEt2ZY4CJObFixcpcY0fJnuCM5A4sGIqB3cQ6BbEi5JBX4RZaVjOoAGquQapyWDQZLCr5d9drkFqwnSVQUcxlqudllTBSdgHkR/GUZCpOI99cC7qqPtzf7rBCOmoDPrc1U5NyDgP46iQXWVqdvAYXS1qIYVpgpMtYzo1g45ytdMSpqsnCc55BI5y+SQw2J6md1RAGEeF6YoK1hWjNzQ01CR+Vbc1TyaDPn/C4ERA19fXr/x3OT09PWn+xSpM0IRc6Ux1Fax0ejLYVcigWbIrKjxh0ARktqslHQVhugrpKFc7LWG6ChlRYRwV3eAMM7sMdpUpR0HIiFrOrqjgaqclU8EJy+zzMGEQpisqhOkqjKNCdpUpR0GYrsJEVEifZzA4kx0V/KTgPLIqOLNF5TBkKr+E8UVmV9rVTkumulrm3ZVBR2W2K1c7NZl1VER9HjKiMthVphxFV652ajLoqOX3eQYdtZw+hwz63NVOS5jZZdDnIbtytVPDWBl0VKa6yqCjHi84yS7sfJmDk+Fc7dQka5oVUzlMZmJiguHBfogSfvnlFxriRHNuqgQrzSeVacJwJFBtJOjHElZi1cwjfFoMkQhKgA6pad9m44V5CXtknfBJK+szOUEP1LQOg4nMS1DBEjQhTRPqkzaTKLFEUMK4QDmjYwwJPoNEYFtgCUNbIiixBOXWispBKywhYbZZgsIHnk1MxBI055MegoTV5JN+AtsWJmxcPs2kIMFnkDA/BBNZmKA3EowbTMRMmpegJmmbCJ9AKz4pD9xuHVKfT5sITczJQQKTSPBJZXPXwgSf8GAOCayVWRIYaQkzzMbFBnOyzSi5xJoHJi2aAFql8TYmUdN6o9UDy1IkqENlPgNLFibMY1RmXLoNEglD/ik2bHSbiDVZ6H/GmufkhQnrhE+biLUKEmYSCepQmVmYSebk5AQmUYc0hplvyQYmJdsWuMImQhM+gxISlFCHLK1smrRaNEH9B55N7Xa6wsJgIjRZNGHV+KSVmbQwYZ9UtonMmxpdmbXBoDRMlaAragZODhKBSVYC1KdVYNvCBMNZq8CS5IRZa08Z1KbAp1kyL0EdhqYyrYKEWRIk+AzGBUsEJZbANroiTSdmGwlMmpegqwcGzZ3bJMyS5BIShvk2OZFspI3LJ0MnJxI2/pORkDwjIEHWEvRGgkEXOnlewgyziTDT5ASfQQmV+aQyDa2VJSgPEsCgwUQC25ITZnwwEUvQMCjhKQnq27j0Ni+BSXRFAqwyxpDgc9EElWlCZZuRJczIIEE5NtAVrSyBJUFJYGRLSws1TWyQWBmVc/Xq1aKiIioPDQ3V19czwzt37tTW1k5NTQ0PD1+4cGFsbIxEVeL/bJOurKy8ffv2+Pg4j0gwDVrxiIEuXbo0ODjITOxXb9FnY2Njb28vdRoaGhiIOk1NTSTwApNva2sj0dzcTALHUd7a2op/Ozs7zTV9fX085VF/fz8NqUxv2IaRlFRXV2MkA5HAHuzHJDyLkZg0OTlJIZXRcKRJjCb+8BOPRkZGKKEV1lIfa+2/5FFyLfF7hKnT3d2N/Qx6PfHbmTCsq6sL2y5fvoydrBMJ+78JGM80qUzWfh0ObS9evEiCJkycnumfBDO6efMmCR7hOktgDAYwqHkbI83blMP58+dv3brFNEkwQRK0ooK5nUeMS8mNGzcCb2MSC4ENdI499gtImAgGU8JE8C0lZEkwkZ6enh9++IFWzNS8TSfUp0N8a7/UhEc4B6fhMUowA2NI4Ftzu3mbEj5JYxKrwHBMjVlgLQ5h7jYRusXtVA5ig4WmMmbjfwzADOzHNqwlGCjBtxhMCc63iZDASBJM0H7pAN5mODqkE6ylBGvxCZPFY7iLGWEtdRgdP5u1hC4mUQGDaYW1FhtBkNMJXRE/tKUrxmI1MYnRmQhrihuxn86ZI8ZQ+fvvvzcjcWzgbdLUYcpMiokwL6ZpQU6fdMgikqAyCTMSj1lIMxAJvI1VWIup2Inf8CfWWpBTzWKbBM0tSJgIvdkjC3ISQZBjg4UN3sYAIrmjowPb8DbuJdrN2zxiXlRjRlQgQT80YRRKmBETp0MLcuzHYzwyt5PgEd7GSKzFctuJJJgIzifN1PAtUyDBlG1GdIJtOIQSEnjbghzf4jFsI4H95m18y3C4GmvN24HbLaSx1rzN3KnPHLGWPqnD0LjC7MddGMnQ2IYZFtsYhp0kiAfzLcbzlATepiHWmrfxA21JUGK/boA6+Me8TXwyHDPCmViCtykJvG1OptCCnCBhsiRwqXmbzklgPyX0TIIApsSOFBIYif2MZbFBHSzHAHN7cIAzNc6NZG9TB9+abZSQYInxBkZSgrdJ4D28jW04Fjupg89xrwU5LqWELC7FEuZlQY6RNGQidEufJIhkbCOBo7CW0QnpIGFbEvsx0vYmj4gQ5sIjssyO5lRgFGxjgTAA+/E20ySBoygxb1MHeyxIMMO8jbXYT4LPYCeSYI6slE2ETuicsShhKUkwERKYgf2YZN7GEnrGPBLmZB6RwHILCRKBtymxk5yJ0IklcLJ5m/4xgNEZkUjAHo5l25LJQY7fzNuUYD9rQYIK9EBlOuERdeiWaKFDBiJBHRxFgrFwO+PibVaEAMBm3E5sMAvAWsw2T/LIvE0FeqCVJeiHbkngZKzFFZRgLSWYwflgS2P//wu3l5SUIIxMbGDSiv30MduMgVkSPIgdTJIEXmNRcTe2ksBcaprdZOmcRzjL4oYmJIhyPEWfeJ8gYG6sBEtrCdzKI5YEH5HAL6wKCUKKjUSCSCUQSbDlqEaCtuxzEiwSPdAPjmbhOeMIdMZlUBYDS7AHG0hgNmvDI0zFYIsD0iQw2wKImkyTOgSfmU1vdM4j1pjOcQjRwLgMytAkMAyrSLCu2GkJM5tZmLXEFnMhgdmsMQmmbGbjDcymJDAbb9uJhlWUYA/OxACsxX6cTMLspxyzgwTWmtlUZu50Tj+YTSIwm9HNbOzBKhLYH5iN50lgvJnNcpjZNDFv0wk9mNmMi0NImJEMbfbjQ8Y1t1PHvG1BguXUYRZmpLmdykzZJkKQ8IgSMxIXsawkGN1KSFiQYGFgthlJljQJfGvRwgQDb+MBzMYbjGtBQgkJi20eJUeLORk7MYlPpmBmM03qUMGCnLb0QB3aWmwEZjMQCYwM3B5422I72duB2ebkwGyihTUlQW/4JDAbFzE0BpDAYySw0MwmgZ1YSwJ4xESwlhIqmP1BkNDWzKZbRiGBt63EtiQTsdjGw2Z2sDf5NPtJmNnUJIEnMRtrKcEbdEWHDGT2k8BdjI4NJLCHGCCBhZiNSRYklFiCEmLbvE0T6jMROmEU25uMYt6mhESwNwOzbSdiqkULn0G0BEFu9mM2DUngBDObZcVsrGUgDCBEsQEnY4ZtSRJmNq42IwOzzdtMhCa2N21Lmtn0SSLwdhAkgdkWLQSGmc0szNtkCSH6wWwamrcxmwROoISeg2jBUbiL0bGWS44EVlGCYWYkZtvetCDHWvM2CQKMahgZeJsEnTMEZluJmY33zNrAbKwNzLadSJCY2cSVud2OFEo4QGwimI1JJBiIhFkbJJiRBUkQLST4JI39dgBakJPANuzHWkoCb+OowGwS2GNBTsKOlCBa+LQgYTpmbbA36YQEvsV+czJmMwpDsL6YRAJjrMQOcCwkYSIDb1OHLGkSxAYJ+rEgIUEnNhHcYrHBQFgbxHaytUG02AGSbLZFS3Js27nN2uEBSnALCYbAUSR4hA14m0UngW3EA+412WRmm7exjSzVzGx6wP+YbU42s0lgNgnMNrfjRowhEURLENsGHa6MyhFCCCGEeKpI5QghhBAinkjlCCGEECKeSOUIIYQQIp5I5QghhBAinkjlCCGEECKeSOUIIYQQIp5I5QghhBAinkjlCCGEECKeSOUIIYQQIp5I5QghhBAinkjlCCGEECKeSOUIIYQQIp5I5QghhBAinkjlCCGEECKeSOUIIYQQIp5I5QghhBAinkjlCCGEECKeSOUIIYQQIp5I5QghhBAinkjlCCGEECKeSOUIIYQQIp5I5QghhBAinkjlCCGEECKeSOUIIYQQIp5I5QghhBAinkjlCCGEECKeSOUIIYQQIp5I5QghhBAinkjlCCGEECKeSOUIIYQQIp5I5QghhBAinkjlCCGEECKeSOUIIYQQIp5I5QghhBAinkjlCCGEECKeSOUIIYQQIp5I5QghhBAinkjlCCGEECKeSOUIIYQQIp5I5QghhBAinkjlCCGEECKeSOUIIYQQIp5I5QghhBAinkjlCCGEECKeSOUIIYQQIp5I5QghhBAinkjlCCGEECKeSOUIIYQQIp5I5QghhBAinkjlCCGEECKeSOUIIYQQIp5I5YRlamqqpaWlNkFdXV19goaGhosXL15K0NjY2PQE0DwMrvZi8BQzsAersA0jMbWmpubChQvnz5+vqqo6d+4cS3P27NkzZ86cXgwrr6ioOHXq1IkTJ44fP15eXn7kyJHDhw8fOnTo66+/Pnjw4IEDB/bv379vWWAgRmRcRscMOHr06LFjxzDMzAOyGGnw1KoB6eTKwKS++eYbZkfE22RxBeATPFNZWYmXAHdVV1fjus7OzvAbI1rcvXu3tbWV2EhFIsxdnD95kCci90lxfSWBPdgWxPmi2CML/kSMO4gEYoPABqKF4CFC+CTYMhXeFr2ELkNYKDJEcsRSaLFqZswjEb+u1cmTJ5NDNxUW0kE8M2uCGVjE7Anm+/fv9/b22rrwyQoGi2sLHWCFi8LSE5N2yiXW+Z+gT+ucXQzmAVwB+ATPQHAMAn7Dq/gWDwOnBOBwWyxbr4VLBqwRiwvEDNjZaMdjpkLoyTFjAMOw0DCDzXiDuTAjCzmbKVNm7jjBws/cMi8ILd6CkAOLuuSDFFiv0dFRt/wrgVROKLgV8vLyiAbbCQbrbUtuBAufHupQmYb0kLydgo2UHos8Czt6sHGtW+s56DzAjKROEI52oxN/dihwUthN5k6XBRCmzQnQedyObW1tl1cabIAffvgBe7AKMO/7779PnIHzBR/MO/iYPk4AvBEceYEDcRruLSwsJO0iIEbMzMwUFxdzzNk0U5GInQcsDHJ4EMqLwSOq0YQeiNLwgZ0eO3Pp0OwxG2wgSszgZKwOK2uhvhCCwe5XC2/iZ3mi2oI2OVzNhoUkB3AQvc76FATxDMlrgYsIZs4NFwErBxIHD+Tk5NiqBauJnWTnhQorTiGPLLQCrD7Y1IA0hexipp98ywYXLd6DB/Ingcl3w44+A58b+D9xkDhYqcT550icNw9OQoMFDXhwKiVw6/3otLe3u1QmMGPMNrPWjLeJMC8LQrCQA/wQHJuQ/BaBJ+3wBFONySE37xQFW1/0086dO6emplwQLDtSOaEgCJDALiM8gON4cHCQzUk8u6JYwLw473i3c3nhARbMvKet+Nc5v/zyy9GjR7lHXV48DP5BDbBeLh8LiLpdu3ZdvXrV5ZcdqZxQIGDRpC4TTdg5N2/enJ2dJd3T03Pjxg0rDxgYGOjq6nKZBOw3lP7CLcdWROzv3bsX2T4xMeFKY8fIyAgXQ8wimdXkjsmG1/qMQIh2dHTwGsrrKSvFSYqAO378OJc6T6enpynhKWF89+7de/fu8XZLia3p6Ogor7PXr1+344+Di2ociLiIPil/MEBcGB8fLyoqYnYuv0JwdPC6iNtdPrIQWoQcoQIEFYene/AwPO3u7ua8dfmHGRsbI8x4ev78ebKE5ZdffvnMM89w3ZDt7+9niOHh4UTdCMP++vrrr3m5cvllRyonFNXV1d98843LZDdsv7a2Nkvcvn3bCoE1Zl0mJydJM50zZ85YeQCtDh065DIJuAZ27Nix8GTkkPrd735HJ4QOFWL2bUcAKic/Pz9+KufSpUvoAJePLEykr6/vs88+Y2MeOXKEOOSyee211zhPkXHcFkiWL7744uTJk0ePHt26dWtvb29BQcHu3bsPHDhA4bVr1zZt2kTDkpISHEKH7Jf333+fcm7iDz/8EBFPIeKAG4ixEmNGGCZCMGeDymGBWBqXjybEA2+M7733Hu94nKskmBTld+7c4VQcGhoyWUMWt2/cuDE3N5csZ29lZSUeIM2pwmm8YcOGl19+mcS+ffso5Ex+6aWXXn/99U8//bSmpuarr746duxYcXHxwjfSaCGVEw0ipHLYYLapSLBDrJAXWdaFFw77LodTxqbDXiX47OzjGpj3r3IzMzNcDLwBk+DmuHXrlpWzjblFeBFh+3F0UoF+eGM2uUOWBKM3NDTwIsKuJryQUIyOGbyd2Ht29oPKYfpSOdkJEyGoPv/886qqKi4JopGoy8vLo5AlY+Eo5xZBo6BXiEMuJJ4SybQlJtkCdrXQj20KXp1ffPHFpqYmAviPf/zjX//6V5pMTU0hlej8wZBRhuuWY8F26AoSG5XDm95zzz3HUYZjX3jhhXfffZfQ4rUQacIE7R2SexCF/fbbb//pT3/iMKHC5s2bkT7InZycHBQPCaKUrlDbLA2HKuHHaUwPpaWl9u96HJ7hr+fsBPulciJAGpWTCMK/EfcunxbczWJzjLr8UwAxwdsqCbbcoUOHsJyNtG7duvr6ek55bjikDwf3iRMnONY5+Pbs2VNXV8c7Lu+7ZWVl1gkWHj58mK3I+y43xP79+62mPWWyvAHTD58oHuQRDblveEU+d+4creiNsXgzxml0derUKWpiDHt+y5YtnZ2d1k+WgwMLCwtjqXJYKZePLEwEBcP9wWlDRHF9UnL69OkdO3ZwQ3R0dHBhIFYoIW07lPBD/XDN0BzBTaCyC2wzsjGLioqeeeYZbprW1tYPPviAiOVo5hExcO3atQdDRhku42z4IbN4qJzp6emNGzcSLUQaqnr16tW7du0qLy8nxogiDjpOVKpduXKFyX744Yc8RWrzlER7eztno4UWUMi7Iq+XV69epQdKCEheQghazt54/AATu08qJwIsVDm851VUVHBwfPLJJwh5NAHx6p6lxgT7U/0GEsMQJbyeInfYLZzsr732GtoClcMO5A5A9PCqgWpBizCpN998k6ckuPywzWaBAGIrXr9+/eOPP+ae+Oyzz+gn+Nd09uHatWt5FSZ6yHJzAFu0traWewWfYEBNTY15rK+vj0Ep4Z2GrYse4vpJdJPtoHLwWCxVDrrT5aMMb9KEMRKksbERvYLaZr14XWYL8JTlQ8dQyJ3KRuB2oZAYJlbtHw7YjGwERAwXTE9Pz29/+1uifdWqVSh1wvv27ds0b2lp4dLq7u5ODBhhUDnbt283SbeCxEDlsIMQMf/wD/9AtPAix6FHgmjhlOMiJ1q4/uyHOBsaGo4dO8YFcfPmTcKME5goJfaoz3JYb3Dr1q38/Hxa2Q/6kKAh5SMjI/iKU5o3SasZUaRyosFClcNG/etf/0rgcmdw3xOg7sFSEO5P+8sM7Ll8+TK6hN3I+f75558fOXKEF1/7j5oYwCvIunXrvvjiC2TN+vXrOes5+vfs2YOa4R2XHrgnuD/YsZ9++ilNqIk0CTYbS8w1wKvGgQMH2Ldsb7YiLy4MimZiIPrnUjFFhb6hMncPhyw7HA2EMdZPljM2NlZcXBxLlTMvmKOITeRPf/oTa4SkZj8ODw+XlJS89957xC1vHZxrr7/+OvfHhQsXeIokam1tZUewVXktIUpJc/Ii4smibNgmMzMz7A4qcDMhCLh+CPKPPvooBj8BKpWTKZgC0YIzp6am0MEc5qgWjkTeKgkhDkxkN3HIqyyHKiFHLCG4OUy++uqrNWvW2D+zUoEzk9dL3idpi0MQRpylwN4ktlkvIhP9zVm6YcMGN3Y0kcqJBgtVDhL+rbfe4jAldk16AzqA1z7zJmHd19c3OzvLriBkSdgPwXDf22slm8G+aU80zSQc6KY8sMS+umcHsus444ArAQOwjUOcml1dXSyW/S+V69evs3zWCeXUpCFHvP10Z/BzOWxCdiCqCBFz6tQp9A27nTq80FCCQkLuMF80zcWLF6enp+mWuTNfRmdXRyU2Yqxy2PMuH2WIVe6PYAcxNS4VrhZkDeKenci+C442nvb09OTl5SHluWPYqviBzcuVw9VCWPKUaoQ94YqyJ1bJUs4uoG2ijwgjlZMpCAaOMg40EhykJIgWQpFsb28v773UYYLoY5Q04cdT+3KRw5YSPMDxiHYhUFkR1sX6pC1qJgg2jp2TJ09u3LiR+8L6jC44QSonAqBy5v1Pcm533hSJ5pGRETtn0ROrV6/mXkTjc/Hv37+f98jc3Fz0xLZt27jy7X988OKInEcNoPqLiorwlXWYWTDJdkumyGxvkYADiMMofioHRYtIdXnv8SSwpXKWmfB3auyRyokGqJx5F8PAwADahU/eCI8cOXLs2DHeBbds2dLQ0MBrIgJ8bGxsdnZ2x44dhw4deumllw4ePIjooQQlhEJCtvPKiJe2bt1qcl5kG3FVOUSsVI5vSOWIlUIqJxqgcuw/BwZUVFQ888wzn3zyyeHDh6uqqrg52Lp1dXWffvop09+4cWNTU5P9DO+aNWuoRn37Id+1a9fu2bOHEwcx1NHR8eGHH6KHXKcim+BiKCkpsf97HBtQORcvXpTK8Y2JiQneuKRyxPIjlRMNampqzp496zIJODW6urqST43Ozs78/HzuxdHR0XPnzu3duxeV05j44yC3b9+m8MqVKydOnLhx40Z3dzdLXlBQgO45n/itlyILQeUUFxfHT+U0NDTE4+dyRHgmJyd37twplSOWH6mcaIDKQbi4TGrw5mziN4yFARfhK5cR2Qcqp6ioyP7TWWxA5dTX10vl+Ib9hyCpHLH8SOVEA1ROZWWlywg/QOUUFhbGT+XU1dXN+1F6EXsI47y8PKkcsfxI5UQDVE5VVZXLCD+YmJjIz8+fnp52+ViAyqmtrZXK8Q1UDsEslSOWH6mcaIDK0Q/Q+AYqh9ff+KkcgjkGvxVQPBIzc3+TzuVXCKkcD5HKiQZSOR6CysnNzZ2amnL5WIDKWfgrLkXsQeXouxyxIkjlRAOpHA9B5eTk5MRP5Vy4cCEef8dKhEc/lyNWCqmcaIDK4W5wGeEHk5OTqBw+XT4WmMrRdzm+MT09nZubmyUqJ/i7v8IHkBeHDh2Sysl2amtrjxw50tvb29PT09fXd/369f4QUI3K1qq7u7urq6uzs/Pq1asdHR32ty3b2tpY+9bW1paWFnY+rzhNTU32K3YuXrzY8ChQP7q4OSyGVcAhuAXwD17CV4DTcB0OBDyZjBUGUG0eFLqqbW0sBMsB7QlYHdaIlWKsLVu2xPJfrPbv33/r1i0XpgsgaIlYPGDham5JjlhzqQUtWNwCy2ShC279Hh1rnv0E1loiU1jn5skg5gEnJ0e+Bb9FsmGRnD6YOZxdHKwQqJyDBw8eP36cGONIJMw4Hklfu3aN09LO1Rs3bgwkQdaw4FwRzDaMtK0BHOZ2ni/ETnjbMrZfFq4UsIK2cWzFSdjKWh3qk6Uw2FBPgsUSw1nYBDYEA/GICsljWeBZyM1rBQ9MnINHAWR5GgQhfrAIzM/PJ+uCYNmRygkFKqe8vJwot8i2IF4SqlGZJgv3M5uWDXwzweDg4NDQ0O3bt4eHh+/cuTMyMjI6OjqelokFTEYcN42HWXSmhmv2MJTTZCwBPsST+BOv4lvAyfYHSsE8D8knafJxBuzYuKqcffv2MdlUYUzQErHJ4Uplc5EFrfkQZ86L2zChG2DrOA+3kFHDWb8YbraPgkWvBTDgWwtji2R8nhzJMC+SH1zLCYJg5tOCORtUztdff33q1CnstOgyzNQAM55yUxX2imhnbyC7lxm7rW1rQHCeL4rNKHm/sGQsH6vJ4hIVi4YNJZw2yVi1TOE6XYA9dUYshlUwyAYhamGZfLRaHD44KR4+TgsLC5E+LgiWHamcUOhfrDyELa1/sRLxgMspe/7CQ7P+xconkBf6uZwIoJ8+9hAuhp07d8ZS5einj32D92/9tU6xIkjlRAOpHA+RyhGxQSpHrBRSOdFAKsdDpHJEbJDKESuFVE40kMrxEKkcERukcsRKIZUTDaRyPEQqR8QGqRyxUkjlRIMsVzlcXeAyIkNI5awITymYn0afEUIqJySKvYwjlRMNslzlXL58+fr1652dnVzMZNlUQ0NDpxOwHG1tbV988UVfX19ra2t5efmVK1fGxsa6urqoyak3MDDA8re3t3MAJTp7sII3btzoSEC2oqJix44dXPZk7969Swn9Ezf9/f0E7rVr1yik+c2bN4Me4kGMVU7W/k9yzLt69Wpvb293d7d5npI7d+5wpGDz9PQ0MUwwE3XE/NGjR4lAlskCdXZ2lmDmk41AfCb6e3DAUWi/ZIXs2bNnt27dypXf09PDLqCEoE0OZnYElcnGLJiZMruYre3yK0SWqxwCrLa2lngjEsgSe8TDpUuXjh07Rsno6CjBU1VVRYXjx4+TmJqaIthmZmaoOTg4aMfp8PCw9QakKamrq2PiHNGELgFMP5zGPOXgpeHIyAjBybFMbxy8dBiz21MqJxpkucrBPA6ODz74oKmpCc9jKmqmsLDw3LlzbMj169e///77XNifffZZc3PzoUOH2LRkachVsW/fPoKA7cfeo4S9yos+TUpLSxsbGznuaQus6Zo1axBMbOnq6uozZ85QoaSkhLuHDvfu3XvkyBHrITZI5Sw/mGe/gPXTTz/lviFbWVlJsG3bto3PW7duff7556tXrya2qUB8InQI1y1bthDD3CJ79uwh/r/88ktq0hufzHTjxo0EKt1y37BH3nvvPfYFEc42QRKhe9DxBDOQ4MWABN1S2UyKB6gcglkqJz0IX86xEydOfPXVV2QbGhqIMdJoGlQOpxwn4aZNmwi/srIyIorDMycnB0VOIBUXF9P85MmTXKi0xdVsNGoijDiNeRXcvn07sVdQUHD48GHS1Kmvr+dAzs/P379/Px1Sv6ioiKcx+31CUjnRIMtVTktLC1cCO5ADmu108OBBzv3NmzdTzkZiOXjJ4JJA3LB/OPepvHbtWqqtW7eOY51X59dffx0Fw8nONrt9+zZXO+8ctCU4eMmwdxduCHYyKmf37t3sTD7xCT1zKNirSczQv1gtP5hHvPGW/NFHHxFjHCYc+iQIVO4btiGPOFuQKdwcBDO6hHL0N/fEhg0bENy8Df/xj38keoeGhghXPnlBJ7YJZrYA5dz3RDVNuG94xPnLvcV1hXbnNKRnKpslZlI8YNa5ublSOemZmppCpqCV3333XV7w0DGcqB9++CGHJGGJ5TiQQkKFQ6+uro4ER8SOHTvQKIhpwokgRFJzKhK3iCTq37x5k8DjKOb45aJFtSOMCD8OW9Q8DRHlSG2yPT09ppBiFntSOdEg+//Fik2FQGELcYexJ4OjhNVly3V1dXG+s6OAa/vq1atssNHRUYQOWxFJtGrVKq4EtnRwAPFmzFO6Yss1NTWxn2nLdiWB4kHicMFwH3DTsI1Jo5xituhSOcsP5hGcRC8SBMFhcD3Y7iP8WBRenbkz0CW8KHN585LNgcMyUY3bgiUjmGnOXcU9ZN0ODg4eOHCAruifCEcYoZyIZOrTlhdremYTEcxIfNL2jxHWNh7gqLy8PKmc9PAKh3kcdOwRTlTOvSNHjpDgEbFBZBIV3AVc2J988klHRwcnHnKHg5QZ7d27l4h67bXXeMR5SCfW5+zsLHU4MwlCoovm1OSgRpHTJ2HJud3e3s6BzJGLhOItFKVubeOBVE40yHKVw+ZkB3Lo43z2JAd9X18fLwecKewu9AcrwkqjY3jlJcvW4tWEhmw23nG5D3p7e9ldxCK7mk/K7ecbSLPhuRV4J2bfMhD9cytQDaGDcqIOryC2ydm3Zk880L9YrQhBMHOGlJeXb9u2jdOfeCYg0TFcJAQnwUz4EbcEs71V05AbAoFCOZGPjCNQUULEJEqdtvTJXmDuyHqufFQO6p8X961btyLuiV4kO8FMW+42WtG52RMPmDLKD7+5/AqR5SoH8zjoOB4TfzWra8OGDQQDqppdQ4xxinJZ3rlzB0HMIy4FQosQpeHIyAgxg4y2wxbQLuwyzlsOkOHhYXQP0pn6nCrU5MzkBN60aRMhzSFD52QRN3iGi4aYtx8aiwdSOdEgy1UOsJCc0SS4JJJfBXjr5VbgQCfNmwRbl1cQ3hvsVZUznV3NjmIbs3t5KWFX84JrP87Jnmdn8sJBmmVlZ1JtenqaViSAcmCHs4ePHj1KBSuJB/ouZ6WwYOZU4hjp7++3SOOTYCYgkSxkCVfqEKhIcCKQklu3bhH5BDNxy1Pude4MLp7gX6BQSIQ3aXqmLSXsCyRU8vHHvuD4QiGhilxRLMAbCEepnCUhKgg53EWC2OA4tXLOSXaNRRqHIfGD+iH2eD+khEDlaOXE4BEnBgnih1uDcMXndEU1LloOT+uWCjYQ/ZNIjPDgWx86RAMheizI44FUTjSweHUZ4QdSOSI2cG0XFRVJ5YjlRyonGqByeCl0GeEHUjkiNqByiouLpXLE8iOVEw1QOWfPnnUZ4QdSOSI2jI2NlZaWrvi/g0jleIhUTjSorq4+ffq0ywg/kMoRsWF0dFQqR6wIUjnRAJVTUVHhMsIPpHJEbBgZGSkrKwt/0D8lpHI8RConGqBysvk/34qnASonNzc3Zr83RSrHT+7cuSOVI1YEqZxoIJXjIaicvLy86elpl48FUjl+Mjw8vGvXLkSGy68QUjkeIpUTDaRyPASVY38EwOVjgVSOn9y+fVsqR6wIUjnRQCrHQ1A5RUVF9mfYY4NUjp8MDQ3t3r1bKkcsP1I50aCmpkYqxzfGx8dLSkqCX34aD6Ry/OTWrVv6LkesCFI50aCuru7kyZMuI/wAlVNaWhqzSJbK8ROpHLFSSOVEg4aGhhMnTriM8IMYqxx9Mekbg4ODBLNUjlh+pHKiwcWLF48dO+Yywg/GxsaKi4vjp3L0Q2YecvPmzZKSElbf5VcIqRwPkcqJBk1NTfYX9oU/jI6OFhYWxk/l1NbW6ldcegWLPjAwIJUjVgSpnGjQ0tKi73J8Y2RkpKCgIH4qp66ujj3v8sIDWPQbN24UFxdL5YjlRyonGrS1tR0/ftxlhB+gcvLy8uKnchoaGvRH2byCRe/v7y8qKpLKEcuPVE40uHLlilSObwwPD+fm5t67d8/lYwH33KVLl6RyvMJUTmFhoVSOWH6kcqIBKufo0aMuI/zg9u3bqBzi2eVjAfdcY2OjVI5XsOjXr1/XdzliRZDKiQaXL19mnVxG+MHQ0FBeXh47xOVjAffcpUuX9NPHXsGi9/X1FRcXu/zKIZXjIVI50eDKlSv79+93GeEHt27dQuXMzs66fCwwlaPfCugVpnJKS0tdfuWQyvEQqZxo0NnZuXv3bpcRfjA4OJifnx9+b0QCUzn6ITOvYNF7e3vLyspcfuWQyvEQqZxowJsQZwSHhcsLD0DlFBQUcC67fCwwlaNf/uQVLHp3d3c2vKdJ5XiIVE40GBgYKCoqitmFJ9KDysmGH9jMLEynsbHxyJEjLi88wFTO3r17XX7lkMrxEKmcaDA0NBS/f7wQ6bE//eMycYELr6mp6dChQy4vPIBF7+zszIafLJTK8RCpnGhw586dgoKCmP0gqkjPzZs3s+FHGTILF15zczOHjssLDzCVc/DgQZdfOaRyPEQqJxqMjIyUlJRI5XjFwMDArl27XCYucOG1trYeOHDA5YUHsOhXr17NBmkrleMhUjnRYHR0lNd6nOXywgOuX78ey+9y2tra9GsRvIJF7+joyIZ/ppTK8RCpnGgwNjZWUlIileMVWfKfbzMLF55++ZNv2KLruxyxIkjlRANUTkFBAVNzeeEBXV1dsfzpY17r9S9WXsGiX758WT+XI1YEqZxogMrJy8uL2R9uFOlpb2/Phv98m1m48LLkB1HFssGic8dkg7SVyvEQqZxoMD4+np+fL5XjFW1tbbH8H9c9PT0cOi4jPACV09raqv9JLlYEqZxoMDExUVRUFLNJiTRwMbS0tMTyLyH09fXpuxyvIJibm5ulcsSKIJUTDSYnJ0tKSqRy/IGLgbP4m2++cfkY0d/fr5/L8QoLZqkcsSJI5USDqampsrIyqRx/4GK4dOnS6dOnXT5GDAwM6P9YeQXB3NTUpJ/LESuCVE40QOUUFxfPzMy4vIg7XAwNDQ1EssvHiMHBwX379rmM8ACT7Nw0Lr9ySOV4iFRONEDlFBQUSOX4AxdDbW3t2bNnXT5GDA0N7d27lwm6vIg7Jtn1WwHFiiCVEw1QOXl5eXfv3nV5EXe4GC5cuBBLlTM8PIzKCb/nRdQhmOvr67PhD9FL5XiIVE40QOXk5ORI5fgDF0NVVdWZM2dcPkaMjIzs2bNHf5TNHwjmurq68vJyl185pHI8RConGqBydu7cKZXjD1wM586di6XKGRsbQ+Ww811exB1TOdnwaxGkcjxEKicaTE9P67scrzCVQyS7fIwYHx/fvXu3fsWlP5jKOXnypMuvHFI5HiKVEw30XY5vmMqprKx0+RgxOTmJyonZDhVpIJjr6+srKipcfuWQyvEQqZxooO9yfIOLAYlTXV3t8jEClVNWVqb/MOgPBHNDQ0M2/POrVI6HSOVEA/30sW+YyqmtrXX5GGG/yFvB7A8Ec11dnVSOWBGkcqKB/ie5b5jK4W5w+RiByiksLJyennZ5EXcI5pqammz4Rd5SOR4ilRMNUDn6rYBeEW+Vk5+fT0i7vIg7BHN1dTUHvcuvHFI5HiKVEw24EoqKiqRy/EEqR8QGgvn8+fP66WOxIkjlRAOuBP1Ncq+QyhGxwYI5G/7AvlSOh0jlRAOuBP1Ncq+QyhGxQSpHrCBSOdFAKsc37GKoqalx+RghleMbUjliBZHKiQZSOb5hF8OFCxdcPkZI5fiGVI5YQaRyooFUjm9wMZw7d66qqsrlY4RUjm9I5YgVRConGkjl+IapHHD5GCGV4xtSOWIFkcqJBlI5vmEq5+zZsy4fI6RyfEMqR6wgUjnRQCrHN7gYCONs+HWxGUcqxzekcsQKIpUTDbgY9PtyvCLeKqegoGBaf+HBG6RyxAoilRMNuBiKi4ulcvwh3iqnqKhIKscfpHLECiKVEw0mJiYKCwvv3bvn8iLuxFvl6G+SewXBfOHCBf2FB7EiSOVEg/Hx8YKCAqkcf4i3yiktLdUfZfMHgrm2tvbMmTMuv3JI5XiIVE40QOXk5+dL5fhDvFVOWVmZVI4/EMx1dXWnTp1y+ZVDKsdDpHKiASonJydHKscrzp8/nw0/ypBxpqamSktL9UNm/oDKaWxsPH78uMuvHFI5HiKVEw1wU0FBweHDh+13qABv+TiuoqKCi5CXJDh58uSJEyc4So4lKC8vP3r06JEjR2gFJIASyo3kOocSHDx48MCBA/v3798XDmrShIb0bz0HfVq3Vg4UYhjmYeSiYD8TYTpMiqmdOXOGObKOqcAPlZWVVVVVFy5cqK6urqmpqa2tra+vb2houJiCS5nD9ZgCzODNFXuwCtuwEL0CWIvNWO7mkBaqseKx/DtW7PaysjLOHebIQkNyMFs8W1QE8RwEFSTCOSUWyUD/Fs+PFNKPBD0zCoNiVXLwW+TbdqOQKTAX5sUcLbCZeHJILBkVPKUm9YklQoLoShXqLkCfANfRwzBWclRjhmH2OytTg/1FRUX04CJg5ZDK8RCpnMgwPDzMvOysTNYBnCB2UNohyLUa3PrJpyHvUk1NTWzvlgStra1tTwEiic6bm5sZixOTobEB7L5PHOwPTvZFYSLApIJrL3HlPQJckwbphXdk8hX42AS3F32CSTdguECoBSSMenxwINvDLX+8uHPnzrxgBgtmIJiJB7tHLZjnxXMacBqhDoQ6cWihTli6AH2aWPAzLqOz40wWBJFvkwLbBUCawiDmHynggwAj6oI4N4HlIvWxsPAmsE2c0XOmohqfzM7OuuVfOaRyPEQqJ2LcT8IVxQs3NxHT9U3GzXMOV+ofbv6xxk11pZHK8RCpHCGEEF4gleMhUjlCCCG8QCrHQ6RyhBBCeIFUjodI5QghhPACqRwPkcoRQgjhBVI5HiKVI4QQwgukcjxEKkcIIYQXSOV4iFSOEEIIL5DK8RCpHCGEEF4gleMhUjlCCCG8QCrHQ6RyhBBCeIFUjodI5QghhPACqRwPkcoRQgjhBVI5HiKVI4QQwgukcjxEKkcIIYQXSOV4iFSOEEIIL5DK8RCpHCGEEF4gleMhUjlCCCG8QCrHQ6RyhBBCeIFUjodI5QghhPACqRwPkcoRQgjhBVI5HiKVI4QQwgukcjxEKkcIIYQXSOV4iFSOEEIIL5DK8RCpHCGEEF4gleMhUjlCCCG8QCrHQ6RyhBBCeIFUjodI5QghhPACqRwPkcoRQgjhBVI5HiKVI4QQwgukcjxEKkcIIYQXSOV4iFSOEEIIL5DK8RCpHCGEEF4gleMhUjlCCCG8QCrHQ6RyhBBCeIFUjodI5QghhPACqRwPkcoRQgjhBVI5HiKVI+LJ/Tk41wKIM2M2AcFnEDNw72liQzCWDY0NZpIZ6YwWQjxN2HFSOb7BYSuVEw0GBgbKy8v37t27P8GBOQ4mYBWNQ4cOHZ7jSIKjCWgLx44dOz7HiaeA6/r4cQayEQ0MMGOcZYcPY6ez+OuvKSfr5pPA5rhvDmZt7EmwO8GuXbvK5iido2SO4gRFcxQWFtpnwRz5CfLmyHn65ObmMpCNiwFmktmJwRjPRJgUU2OmzPrUqVOTk5Nu+YUQT4xUjodI5USDO3fubN++vba2tq2tjdWKDe3t7cyI9bp48eKiU6MQLie4koAm0JHgaoLOzs6uObq7u3sS9Pb29iW4luB6gv7+/hsJkIw3b94cHBy8devW0NDQ7QTDTxP6ZyCGY1xGxwaMwTAsxFTMZhbMhUkxRybLrE3LugiIONwuxHDyEoCtgmFrYcuRKaxDoHOGCNyOGYHbiRlz+6IQaSwHa0Eotra2trS0NDc3c0cGkE2GkqampksJCOmGhob6+vq6ujp27pNAD/QDdEi3dN6YgLEW2mAkrHsICrEfmEjyzrI95SYcgsSec5sOB0LydgOiGidPTEy4tc8mpHI8RConGnDMHTt2zGViBHf/kSNHXn/9daLQFYkE9+/fRxvl5OTcu3fPFUUW5nLmzJlt27bZF1eJL9cefK8WfLVmX27Zt1xg366Fgco0DL4VC74Sg927d9s3f/YtIFjWcEUJ9u3bZ4KSIDx06BABWf7wt55AFoIvJu3piRMnTp48eerUqYoEp+fgRDOsHL7JBK6vigrX+7ffuvESkOUR1bAHq+y7VbM58WWu+zYXElN5gE3NoLIlKKcO9e2bVxxi3xbbN6zBF6vmxoVfqSa+SC1hRb788ksEmYuArEEqx0OkcqLBhQsXOMJcJi5w1uzYsYO3QN5NeWGlhFdtXrsnJyeJyKmpKQsLSijneOKT93KEEa+ed+/enZ2dpZAElyjLTWHM/n1nZGSEizwGkcwSc/MxkQc/gpQEy/dUccNkGjerpJ/9egyC5k/eVXbS09ODRmcVbIJZAvZI5fiGVE40qK6u5i3NZWLB9evX3333XYSLZTkWGxsbeS/n9ZEXx7/+9a+8KY6OjqJdeF8nRvHA559/jtrjlfGdd97hRbOhoWHbtm2cpOfPn7dXeV4347TuqBzmHvUZsbL19fXHjx93+eiD1GZG09PTpDltwh9eydDQFAAinkjGS1YeG3j9IHqZpstnB1I5HiKVEw1ipnI40/ft27d7926X//XXsbGxHTt2nDhxYtWqVVVVVfZoZmaGwlOnTiF6Wlpa9u7dW1tbW1NTcyzxj3dtbW1bt24dHh4+c+YM8ogSrtIVDOWMg8grLCyMgcqpq6uLjcrhmszNzX311VfR3FNTU0RjT0+PexYafMKpNzQ0xMFXUVHR0dHhHsQIUznZ9u+tUjkeIpUTDeKncsrLy9EorP2BAwc46Lu7uz/66KNNmzZt2LChr69v+/btyBr0zZo1a7Zs2bJ27doLFy7s2rWLC6a9vR1NwzllP+pBbzdu3CgqKiKIuXg6OzttiBiAymFeUjlZBctBEKKtUeT2n+Ds30yRLMGNbr8pgDojIyNWQoVbt25RkzRHHitLfU4quH79un2pEzOYbBb+e6tUjodI5USD+P2L1cTExO7du3fs2IG4OXnyJBHQ1taGvkHccCVUVVVxi3ATXLlypbe3t7W1lUOT9O3bt4kYVBESh/SlS5fshuARailm3/yPjY0VFxdL5WQVU1NTe/bsIepmZmYOHTq0b9++o0ePHj58mBudeO7o6CB06+vrCdEvv/zyvffeI4zxACcSS9nY2Dg9PU1l+4lplD1N8vPzqYzWQb7ziJ3uRoo4bFjkoFSOWHGkcqJB/FQOcPoHuKIkFi00Fm2Spn5EGR8fLy0tlcrJKlA56GkmxcnF0Ym4Qb6sXr16ZGTk1KlT9n/Hvvjii/3796OBzp8/TxPUDNX27t372WefHTx4kCuWM4oS+99JdIVOos9Vq1atW7eOPm2gqGMqBy3o8tmBVI6HSOVEg1iqHJEeqZwsZGho6O23366oqODcPHfuHIfXiRMnvvrqKwQNOmbbtm0ff/zx+++/f/jw4crKymPHjtn/L9u0adOHH36Yn5+fk5Nz9erV0dFR5A4q58iRI4ODgzRH6Lz66qt4CW3kRoo4qBwmy6fLZwdSOR4ilRMNpHI8BJXDBZltb8OPSvy+y+HAQuV0dXWRRa+wTEgWdig0NTXt37+fRx0dHcgXrnm2bV9fX1VV1aVLlzhna2pqtmzZcuXKFRoCSmjr1q2cVzShEyQRaRso6qBvdu7caf8TLXuQyvEQqZxowAHKweoywg+4PouLi6Vysg1mBC6TyJ4/f76+vj7IWgISFZf4p1Wrw+3LUeiKYoGpHEShy2cHUjkeIpUTDVA5uMllhB+gcgoLC7PtO/9HhSs8ZipnIdPT0/qLY/Mgbnfs2JFtbpHK8RCpnGiAyjlz5ozLCD+YmJgoKCjItu/8HxVUTkNDw4kTJ1xe+IFUjsgSpHKiASrn7NmzLiP8AJWTl5cXA5XT2NgoleMbUjkiS5DKiQY1NTVMymWEH6BycnNzs+0nGx4VVA6XyqlTp1xe+IFUjsgSpHKiASrn3LlzLiP8AJWzc+fOqP/AByrHfo21yws/kMoRWYJUTjRA5VRWVrqM8IM4qZx4//SxWIhUjsgSpHKiASqnqqrKZYQfxEnllJeXu7zwA6kckSVI5UQDVI79tnjhD7FROc3NzYcPH3Z54QdSOSJLkMqJBqicCxcuuIw3cEEGcDwFEC7Ljxs7gbNpDmdupuGGyMnJicd3OZwyLi/8QCpHZAmc3lI5EaCuru7AgQNtbW0sFZ9Xrlxpb2/v6OjonOPq1atkKeTR5cuXrWYqeEodagb90JxOuhIEXVEHqN/a2spFxRs5pwM0JdGY4FISF5NoeJj6h2FSC6lN4DJJJJdbeplJHtrSC0n1yObrvJDA/ONcdumSuRHMqzgZb6Nrv/rqqxj8Hyvi5+DBgy4v/GBmZkYqR2QDUjnRgOsTN3HhjS9gbI7R0dGRkZE7cwynxepQH2hoPbgeFyO5wsQcHGGAVTCdBK9xBiddMiyKce9hWDKDaAiYTYL4MBLfpKwkzo4EzrgEzugEbjIJ3Azv3bOJmx/MOc5Z09PmQHOm8+zEBH7u7+/nnuCRC4JogspBK5eVlTFlN7e5yMlOnIkpsC2wENsgiT9O9WAbgm0xt9+Gh28nGJrj1q1bgwluzjEwx40ErD5cT3Btjr45epOwEqtg9Q2aW1dgPbuRbt5kXAwAM8ZsMzvNbJuCTcemBm6qKXAOSoAb6Xz79u0kXBxkB2xhqRzf4KyWyokAfv6LledwW+Tl5cVA5bS3t2/ZsqWxsdG+wYoxyV/LQfDNHDQn0dLS0jrHgy9XE1+v2jeshn3PCvZVq3E1gX13C/bNq6XtkauX+CIWrAfXY+L7XbDhbGjMsO9oDbMTsNlNIPE1rZvbo0Cr8+fPb9q0KduiVyrHQ6RyooF++thDUDnx+AsP3Lt79+51eeEHdxN/rVPf5YgVRyonGkjleMh4XP5aZ2dn5549e1xe+AFxq5/LEdmAVE40kMrxEFROSUnJzMyMy0cTVE5XV5dUjm9I5YgsQSonGkjleAgqp7S0NOqRjMrp7u7evXu3yws/kMoRWYJUTjRA5eh3H/uGfZcTg0ju6emRyvENqRyRJUjlRANUTjb/HSu8jdtdZg5e4oN1nZiYIEuCU8ZKloQObRFnZ2ej/v+MHo/R0dGioqIYRHJvb++uXbtcRviBVI7IEqRyogEqJ5v/JnldXV17ezsLOTQ0hJqZnp5ubW3Nz8/nDZ708ePHn3/++fPnzx86dIiD75tvvuHl3v4Bbmxs7NKlS+iYiooKQsF6u3379unTp6uqqpqamsh+9dVXL7/8cn9/Pw2pzznFAXrnzp3q6mo6pB8elZeXY8NCpRVpRkZGCgoKpHJEFJHKEVmCVE40QOWcPXvWZbKPhoaGxsbGP//5zxiJ548cObJv376cnByEyPXr1zdu3Hj48GEu7C1btgwPD584cYLsJ598QpqVoubMzMzatWtRSHR18eJFFE9JScnBgwebE79ZZOvWrXv37qXVX/7yFzQNlemfqC0tLeUTJYSWQuJgw/j4uNkTD1A5eXl5MYjkvr6+srIyl8k+CLzBwUHu48DVJK5evYpS53giSk+dOjWR+H2ARCM1EeWIbNS8CXoOL1Yq+QijFSXMmvS1a9c44AhaekheSkpGR0ftS0qGjvrPmC9EKkdkCVI50QC5cObMGZfJPgggfL5hwwbUCef7sWPHvvzyy/3795OurKzs6upimRFq3BaHDh2qqqpqa2vLz88nvWbNGoQLs3vppZdOnz6NUuGln2jg/ujp6Tl37hyKh8uAS+XkyZObNm0qKioaGxs7cOAA1z9S6cqVK1RmCHoIH0NRgVnn5ubGIJK56VE5rKnLZxNYhXYh8AoLC+vr6ykhmAm87du3I6xRNkjzZ555BiX91VdfcVYStDwtLi6mIQtEFqGDgicsaYsAoiuCf8+ePcQ5Nz0R/uyzz7I7iFjeBIhShkPKU4HFRa8zKO8DZAcGBhIWxQSpHJElsOmkciIAtzgiwGWyj+7ubpQN9wTyhYP7+PHjaDJehXmETGEtOMpRLZzmVKOQgx64J6jGrbBx48Zt27Zx0NMDXVHh3r17vDTT1dmzZ1lQ7hXqI4Do8+jRo4Qst+bBgwdxC2vNBcOxVV5e3t/f/8CauBAblXP9+vVsVjmdnZ11dXXIEbzNLYh6JrF+/XpkClFHmN2+ffubb75BtSPXkNQcWKtXr0ayl5aWErQs06pVq27cuMEpRtumpiZCHU1PcKJmUOe3bt1CML3//vuIIc47+tm6dSvBTFSjkOitvb2dcmLe2RQLpHJEliCVEw04MXGTy2QfnB1DQ0O873JncL5zpfESPDU1RZZznwgzTYP64XBHuxQVFXET0PDChQuXLl1CwA0PD5Nm4fLz8zdv3szdwFPuD2rSCvkyOjpKPwxE/9wu3B8kGJRRuCQYxb4cSpgTE2Kjclg+liw7VQ709vYikfPy8vgkGtlrpO0fiPm0P+1EObJm586dV69eRdBQs6Ojg+BE/RDtL774IsHPDkWCW5+0Is4R8Swf9dFG9InEb25uJr1lyxY+cQsgASm/cuVK1vrn8ZDKEVmCVE404OTlPHWZrITjY2JiwhIsgRUCxz2nvKVZ7JmZGd5feTkmTQlZVsqWfzbxVzmRR4ODg9YV0JY7hgTd2ok5r3+gq76+PrQOB6srigWxUTksYklJCQvn8lkGwYZoxtUoafvHUDRNW1sbsoNN19nZiQqnzp49e3h68+ZN5Lj97HxjY2NFRQXSh/poGiBLHKLpCeyGhgbEeldXFwccIZ2Tk0MnBw8epP9t27Zt3bqVY6quro5VRvEj02lu9sQDqRyRJUjlRIPsVzki4yAQuXpj8A8ZAwMD2axyAIWNduEwQmTX1NSYBEflVFZWoktQP2R7e3vPnDnD2XL8+HH7yWLUSWtrK+XU7+7uRgCVl5cXFRWdOnWKp8z3RALue+ufDkdGRug/+LljSoaGhhgC/8TsF2JJ5YgsQSonGkjleMjt27d575/3xVUUQeWUlpaG3+TZA5fiPLPRJeAyC7CnYFmag6XTQB3TVXFCKkdkCVI50UAqx0N4y0flxOD+GxwcLCkpiaLKEY+NVI7IEqRyooFUjofcunULlRMDccBEIvpdjnhspHJEliCVEw2kcjxkYGCgoKAgzD95ZDlDQ0OonNnZWZcXHiCVI7IEqZxoIJXjIdeuXSsqKnKZKHP79u2ysjKpHK+QyhFZglRONJDK8ZDu7u6SkhKXiTLDw8NSOb4hlSOyBKmcaFBbW2v/PVX4w9WrVxEHLhNl7ty5s2vXLra6ywsPkMoRWYJUTjSoq6uzXwcs/OHy5ct79+51mSgzMjKye/duqRyvkMoRWYJUTjSor68/ceKEywgPuJ/4K5L79+93+SgzOjqKymFjurzwAKkckSVI5USDixcvHj9+3GWEB6Bympqa2JwuH2XGx8f37NkjleMVUjkiS5DKiQaoHPtr3sITUDks+uHDh10+yqBydu/eHbO/uS3SI5UjsgSpnGjQ2NhYXl7uMsIDUDn19fXB37iONPanLqVyvEIqR2QJUjnRoKmpKWZ/slikB5VTV1cXjx/GQuXs3r07ZltSpAeVs3PnTvujpNmDVI6HSOVEA7alVI5X2Hc58fj1AbzQS+X4BionJydnenra5bMDqRwPkcqJBi0tLYcOHXIZ4QGmctgbLh9leKGXyvENVE5ubu7MzIzLZwdSOR4ilRMNWltbWSeXER6AymloaDh79qzLRxlUzq5du7LtwhNPFVROXl5etp3DUjkeIpUTDVihgwcPuozwAPu5HCLZ5aPM9PS0VI5voHLy8/M5jV0+O5DK8RCpnGhw+fLlePyCOBESVE5NTU08vstB5ezevVsqxytM5XC+u3x2IJXjIVI50eDKlSv79u1zGeEBqJzz58+fOXPG5aMMF96uXbv4dHnhAVNTU3l5eVI5YsWRyokGHR0d8fiTRiIkqJzKykqpHBFRJicnc3NzpXLEiiOVEw06Ozt3797tMsIDUDnnzp2LjcopKyvLtv9ULJ4q4+PjOTk5UjlixZHKiQbd3d28DbuM8ABTOUSyy0cZVE5paWm2/YI48VQZHR3duXOnVI5YcaRyokFvby9vw9x8Li/ijqmcyspKl48yqJySkhKpHK8YGRlB5czOzrp8diCV4yFSOdHg+vXrvA1L5fgDa43EOX/+vMtHGVROcXFxtv1JI/FUGR4ezsnJCX+yLw9SOR4ilRMNBgYGeBtmi7q8iDumcmpqalw+yszMzEjl+MbQ0FBubq5UjlhxpHKiwa1bt7gnpHL8wVROXV2dy0cZVE5RUdHExITLCw8YHBzMy8vLtiNLKsdDpHKiwfDwcElJSba9GImnR8xUTmFhoVSOV9y8eTM/P18qR6w4UjnR4M6dO6Wlpdn2o3zi6REzlVNQUDA+Pu7yIu4Qvf39/Sw6CVeUHUjleIhUTjQYGRkpKyuTyvGHmKkcXuvHxsZcXsQdovfatWuFhYUunzVI5XiIVE40GB0d3bVrF85yeRF3pHJEdCF6e3t7i4qKXD5rkMrxEKmcaMANIZXjFVI5IroQvV1dXSUlJS6fNUjleIhUTjQYHx9H5TA1lxdxRypHRBeit6Ojo6yszOWzBqkcD5HKiQYTExNSOV4hlSOiC9F7+fLlLPzTe1I5HiKVEw1M5dy7d8/lRdyRyhHRhehtaWnZt2+fy2cNUjkeIpUTDSYnJ8vKyqRy/EEqR0QXorepqenAgQMunzVI5XiIVE40mJqaQuXEbFIiDVI5IroQvZcuXTp06JDLZw1SOR4ilRMNUDmlpaVSOf4glSOii6mc8vJyl88apHI8RConGqByiouLuS1cXsQdqRwRXYjexsbGkydPunzWIJXjIVI50QCVU1RUJJXjD1I5IrqYyjl16pTLZw1SOR4ilRMNUDkFBQVSOf4glSOiC9F78eJFfZcjsgGpnGiAyuGeuHv3rsuLuCOVI6IL0UvonjhxwuWzBqkcD5HKiQaonNzcXKkcf5DKEdGF6K2urj5+/LjLZw1SOR4ilRMNUDk5OTlSOf4glSOiC9F74cIFqRyRDUjlRAOpHN+QyhHRRSpHZA9SOdEAlZOXlyeV4w+mcmpqalw+ykjl+IZUjsgepHKigX762DdM5XBVuHyUkcrxDakckT1I5UQDVI7+J7lXmMqpqqpy+SgjleMbUjkie5DKiQaoHP1WQK/gnjh37hxCx+WjjFSOb0jliOxBKicaoHL0Fx68wlQOuHyUkcrxDakckT1I5UQDVI7+WqdXmMo5e/asy0cZqRzfkMoR2YNUTjRA5ZSVlUnl+IOpnDNnzrh8lJHK8Q2pHJE9SOVEg8nJSX2X4xXcE4Tx6dOnXT7KSOX4hlSOyB6kcqIBKqekpEQqxx+kckR0kcoR2YNUTjSYmJgoLi6WyvGHmKmcgoICqRx/kMoR2YNUTjRA5RQWFt67d8/lRdyJmcohesfHx11exB2iV3+tU2QJUjnRgBuCt2GpHH+ImcopKipCqbu8iDtEb01NTXl5uctnDVI5HiKVEw1QOfn5+VI5/hAzlVNcXDw5OenyIu4QvXV1dUePHnX5rEEqx0OkcqLB2NhYXl6eVI4/cE+cO3cuHirn7t27JSUlU1NTLi/iDtFbX19/5MgRl88apHI8RConGoyPj+fm5j69SXEqPSXcAOLRqa6uPnnypMtEGVROWVnZ9PS0y4u4w8a/ePHi4cOHXT5rkMrxEKmcaICDDhw4UFBQcPDgwb0J9uzZs3v3bi6P0jlI79q1i0Iewb4EJCi0asXFxYWFhXTCZ1FREdmgIQRP8/LycnJydj4ZaDJ6s/5JWNqsMpPsEdYyF6ZGFAKzA7L2mQwlVODcPHr0aHl5+YkTJ1AAp1LDU6Cacfxxce0TwwW4MVJDHZrQ/NixY1gLvNcC9h86dGjh7Bayf//+7du3t7S0uAiIMjMzMwSY/qK+P6BympqaiHOXzxqkcjxEKicycFV0dXVdvny5vb29o6Pj6tWrnZ2dlPT09PT29vb19V27du16gv7+/hs3bgws4OYcg4ODt27dGhoaun379nASdzINfTIEwzGoM2JgANswEoMxO5nu7m5mxLyYINNse1yI5tbWVvRBc3MzR21jAt4sGx4dWl26dInm9MPJSId0S+cM4QZ7muC0eHwZxvYuKSnBn6w74WpLbFy5coWZ4lJ8GwZWgbVgUerr6+vq6qqrqy+Eg5o1NTU0sWW1NXWdZo4gPCxCCGNgjm62abFNDbav2Q74ynZ3MmycZGzXs+Vt1yf2dyjYlRnHerY9birfRUDWIJXjIVI5IoY8+Keyp4YbQzwK3Nb21d2BAwcefNO4Zw+Jwwk4gOy7qwB7dPTo0WPHjiW+R5tP4lu2J8J1lBrqMDrM+wbOmZga+w4V7AtXYNawaymoY/UT39Xutd4Y0QYNOqQmnkQ1FhcX2zeypCmxb2Stn1RQgZrWsKCgID/T2Fe22IBJ+G10dNQtf9YgleMhUjlCiOXAiUSRObizw8MhC7MJOHaBozKz0CdD2HCY5xY+m8AwqRzfICalcoQQQsQfqRwPkcoRQgjhBVI5HiKVI4QQwgukcjxEKkcIIYQXSOV4iFSOEEIIL5DK8RCpHCGEEF4gleMhUjlCCCG8QCrHQ6RyhBBCeIFUjodI5QghhPACqRwPkcoRQgjhBVI5HiKVI4QQwgukcjxEKkcIIYQXSOV4iFSOEEIIL5DK8RCpHCGEEF4gleMhUjlCCCG8QCrHQ6RyhBBCeIFUjodI5QghhPACqRwPkcoRQgjhBVI5HiKVI4QQwgukcjxEKkcIIYQXSOV4iFSOEEIIL5DK8RCpHCGEEF4gleMhUjlCCCG8QCrHQ6RyhBBCeIFUjodI5QghhPACqRwPkcoRQgjhBVI5HiKVI4QQwgukcjxEKkcIIYQXSOV4iFSOEEIIL5DK8RCpHCGEEF4gleMhUjlCCCG8QCrHQ6RyhBBCeIFUjodI5QghhPACqRwPkcoRQgjhBVI5HiKVI4QQwgukcjxEKkcIIYQXSOV4iFSOEEIIL5DK8RCpHCGEEF4gleMhUjlCCCG8QCrHQ6RyhBBCeIFUjodI5QghhPACqRwPkcoRQgjhBVI5HiKVI4QQwgukcjxEKkcIIYQXSOV4iFSOEEIIL5DK8RCpHCGEEF4gleMhUjlCCCG8QCrHQ6RyhBBCeIFUjodI5QghhPACqRwPkcoRQgjhBVI5HiKVI4QQwgukcjxEKkcIIYQXSOV4iFSOEEIIL5DK8RCpHCGEEF4gleMhUjlCCCG8QCrHQ6RyhBBCeIFUjodI5QghhPACqRwPkcoRQgjhBVI5HiKVI4QQwgukcjxEKkcIIYQXSOV4iFSOEEIIL5DK8RCpHCGEEF4gleMhUjlCCCG8QCrHQ6RyhBBCeIFUjodI5QghhPACqRwPkcoRQgjhBVI5HiKVI4QQwgukcjxEKkcIIYQXoHIOHjzY3Nzs8sIDpHKEEEJ4ASqH+6aiooKL5+4c03NMzTGZxESC8QRjCUYTjCS4k2B4jtu3bw8luJVgMMHNOQYS3EjCSsAqWH1ra/3QYUgwA3swDAsxFZsxnrnY1GymM6HhAjXuJeBWNfBbeGYfHdcyNGaVGWk4u3/8MZgIDsnLy7t27ZoLgmUHO6VyhBBCLAeogbKysoKCgsLCwqI5ihOUlJSUzkEd2LVr1+607Nmzxz4DrJyGYJ24HktL6R9sLMNKwCpYfWtr/SR3aE+tJk1obsYzkeS5gPVsNZM7tERyJ0E/1okRdLKwHzPGCHpL7tBawbw+l8QGBWueMC2lWwLMAKtmTay5dUW3LHR+fv6pU6fCi4yMI5UjhBBi+eDWse9m7Hsa+87GvvYIvvN48G1Aim8y3NcOs7PcW/DLHPefGm6ABDaosyDpyw+zMPgyw77JsOnY1zmJb6kcNmWbvrkCEl9ULY19lRVg32lB4lutf/paC9y3TI+Cazk8bL2B6z3xNdU8nEFLwXzxm1v7lYDVkcoRQgghRAyRyhFCCCFEPJHKEUIIIUQ8kcoRQgghRDyRyhFCCCFEPJHKEUIIIUQ8kcoRQgghRDyRyhFCCCFEPJHKEUIIIUQ8kcoRQgghRDyRyhFCCCFEPJHKEUIIIUQ8kcoRQgghRDyRyhFCCCFEPJHKEUIIIUQ8kcoRQgghRDyRyhFCCCFEPJHKEUIIIUQ8eSoqp6KiYnx8nMQ9IYQQQogVYmpq6sSJE5lUOb/88ktlZeU333xzRgghhBBi5fj222+/++47J1BCsLTKAUSTE1FCCCGEECtH+C9yIJTKEUIIIYSIHFI5QgghhIgnUjlCCCGEiCdSOUIIIYSIJ1I5QgghhIgnUjlCCCGEiCdSOUIIIYSIJ1I5QgghhIgnUjlCCCGEiCdSOUIIIYSII7/++v8DcaKWgduOrZoAAAAASUVORK5CYII=;" vertex="1" parent="1">
                    <mxGeometry x="137.45" y="306.5" width="307.1" height="193" as="geometry"/>
                </mxCell>
                <mxCell id="22" value="" style="image;html=1;image=img/lib/clip_art/computers/MacBook_128x128.png" vertex="1" parent="1">
                    <mxGeometry x="266" y="865" width="360" height="210" as="geometry"/>
                </mxCell>
                <mxCell id="48" value="" style="verticalLabelPosition=bottom;html=1;verticalAlign=top;align=center;strokeColor=none;fillColor=#00BEF2;shape=mxgraph.azure.computer;pointerEvents=1;" vertex="1" parent="1">
                    <mxGeometry x="680" y="621" width="130" height="140" as="geometry"/>
                </mxCell>
                <mxCell id="49" value="" style="verticalLabelPosition=bottom;html=1;verticalAlign=top;align=center;strokeColor=none;fillColor=#00BEF2;shape=mxgraph.azure.laptop;pointerEvents=1;" vertex="1" parent="1">
                    <mxGeometry x="78" y="278" width="416" height="296" as="geometry"/>
                </mxCell>
                <mxCell id="46" value="" style="image;html=1;image=img/lib/clip_art/general/Gear_128x128.png;rotation=0;" vertex="1" parent="1">
                    <mxGeometry x="137.45" y="342.5" width="127.55" height="137.5" as="geometry"/>
                </mxCell>
                <mxCell id="50" value="" style="sketch=0;aspect=fixed;pointerEvents=1;shadow=0;dashed=0;html=1;strokeColor=none;labelPosition=center;verticalLabelPosition=bottom;verticalAlign=top;align=center;fillColor=#00188D;shape=mxgraph.azure.computer" vertex="1" parent="1">
                    <mxGeometry x="560" y="750" width="50" height="45" as="geometry"/>
                </mxCell>
                <mxCell id="51" value="" style="fontColor=#0066CC;verticalAlign=top;verticalLabelPosition=bottom;labelPosition=center;align=center;html=1;outlineConnect=0;fillColor=#CCCCCC;strokeColor=#6881B3;gradientColor=none;gradientDirection=north;strokeWidth=2;shape=mxgraph.networks.laptop;" vertex="1" parent="1">
                    <mxGeometry x="530" y="750" width="210" height="140" as="geometry"/>
                </mxCell>
                <mxCell id="52" value="" style="fontColor=#0066CC;verticalAlign=top;verticalLabelPosition=bottom;labelPosition=center;align=center;html=1;outlineConnect=0;fillColor=#CCCCCC;strokeColor=#6881B3;gradientColor=none;gradientDirection=north;strokeWidth=2;shape=mxgraph.networks.mobile;" vertex="1" parent="1">
                    <mxGeometry x="740" y="740" width="50" height="100" as="geometry"/>
                </mxCell>
                <mxCell id="53" value="" style="shape=mxgraph.cisco.computers_and_peripherals.ibm_tower;html=1;pointerEvents=1;dashed=0;fillColor=#036897;strokeColor=#ffffff;strokeWidth=2;verticalLabelPosition=bottom;verticalAlign=top;align=center;outlineConnect=0;" vertex="1" parent="1">
                    <mxGeometry x="638" y="255" width="42" height="77" as="geometry"/>
                </mxCell>
                <mxCell id="54" value="" style="shape=mxgraph.signs.tech.computer;html=1;pointerEvents=1;fillColor=#000000;strokeColor=none;verticalLabelPosition=bottom;verticalAlign=top;align=center;" vertex="1" parent="1">
                    <mxGeometry x="100" y="852" width="98" height="98" as="geometry"/>
                </mxCell>
                <mxCell id="55" value="" style="shape=mxgraph.cisco.computers_and_peripherals.workstation;html=1;pointerEvents=1;dashed=0;fillColor=#036897;strokeColor=#ffffff;strokeWidth=2;verticalLabelPosition=bottom;verticalAlign=top;align=center;outlineConnect=0;" vertex="1" parent="1">
                    <mxGeometry x="530" y="950" width="83" height="62" as="geometry"/>
                </mxCell>
                <mxCell id="56" value="" style="fontColor=#0066CC;verticalAlign=top;verticalLabelPosition=bottom;labelPosition=center;align=center;html=1;outlineConnect=0;fillColor=#CCCCCC;strokeColor=#6881B3;gradientColor=none;gradientDirection=north;strokeWidth=2;shape=mxgraph.networks.storage;" vertex="1" parent="1">
                    <mxGeometry x="712" y="517" width="83" height="85" as="geometry"/>
                </mxCell>
                <mxCell id="57" value="" style="fontColor=#0066CC;verticalAlign=top;verticalLabelPosition=bottom;labelPosition=center;align=center;html=1;outlineConnect=0;fillColor=#CCCCCC;strokeColor=#6881B3;gradientColor=none;gradientDirection=north;strokeWidth=2;shape=mxgraph.networks.secured;" vertex="1" parent="1">
                    <mxGeometry x="710" y="353" width="80" height="100" as="geometry"/>
                </mxCell>
                <mxCell id="58" value="" style="fontColor=#0066CC;verticalAlign=top;verticalLabelPosition=bottom;labelPosition=center;align=center;html=1;outlineConnect=0;fillColor=#CCCCCC;strokeColor=#6881B3;gradientColor=none;gradientDirection=north;strokeWidth=2;shape=mxgraph.networks.rack;" vertex="1" parent="1">
                    <mxGeometry x="753" y="230" width="50" height="100" as="geometry"/>
                </mxCell>
                <mxCell id="59" value="" style="fontColor=#0066CC;verticalAlign=top;verticalLabelPosition=bottom;labelPosition=center;align=center;html=1;outlineConnect=0;fillColor=#CCCCCC;strokeColor=#6881B3;gradientColor=none;gradientDirection=north;strokeWidth=2;shape=mxgraph.networks.server;" vertex="1" parent="1">
                    <mxGeometry x="226" y="924" width="90" height="100" as="geometry"/>
                </mxCell>
                <mxCell id="106" value="&lt;table border=&quot;1&quot; width=&quot;100%&quot; height=&quot;100%&quot; cellpadding=&quot;4&quot; style=&quot;width:100%;height:100%;border-collapse:collapse;&quot;&gt;&lt;tr style=&quot;background-color:#A7C942;color:#ffffff;border:1px solid #98bf21;&quot;&gt;&lt;th align=&quot;left&quot;&gt;Title 1&lt;/th&gt;&lt;th align=&quot;left&quot;&gt;Title 2&lt;/th&gt;&lt;th align=&quot;left&quot;&gt;Title 3&lt;/th&gt;&lt;/tr&gt;&lt;tr style=&quot;border:1px solid #98bf21;&quot;&gt;&lt;td&gt;Value 1&lt;/td&gt;&lt;td&gt;Value 2&lt;/td&gt;&lt;td&gt;Value 3&lt;/td&gt;&lt;/tr&gt;&lt;tr style=&quot;background-color:#EAF2D3;border:1px solid #98bf21;&quot;&gt;&lt;td&gt;Value 4&lt;/td&gt;&lt;td&gt;Value 5&lt;/td&gt;&lt;td&gt;Value 6&lt;/td&gt;&lt;/tr&gt;&lt;tr style=&quot;border:1px solid #98bf21;&quot;&gt;&lt;td&gt;Value 7&lt;/td&gt;&lt;td&gt;Value 8&lt;/td&gt;&lt;td&gt;Value 9&lt;/td&gt;&lt;/tr&gt;&lt;tr style=&quot;background-color:#EAF2D3;border:1px solid #98bf21;&quot;&gt;&lt;td&gt;Value 10&lt;/td&gt;&lt;td&gt;Value 11&lt;/td&gt;&lt;td&gt;Value 12&lt;/td&gt;&lt;/tr&gt;&lt;/table&gt;" style="text;html=1;strokeColor=#C73500;fillColor=#fa6800;overflow=fill;rounded=0;fontColor=#000000;" vertex="1" parent="1">
                    <mxGeometry x="265" y="343" width="173" height="144" as="geometry"/>
                </mxCell>
            </root>
        </mxGraphModel>
    </diagram>
</mxfile>